# Alias OBJ Model File
# Exported from SketchUp, (c) 2000-2006 Google, Inc.
# File units = meters

mtllib boss00_a.mtl

g Mesh1 Group2 Group1 Model

usemtl Color_A06
v -29.9738 17.668 -6.5156
vt 0 474.291
vn 0 0 -1
v -5.77529e-015 -1.12532 -6.5156
vt -756.457 0
v -29.9738 -1.12532 -6.5156
vt 0 0
f 1/1/1 2/2/1 3/3/1

v -18.5484 17.668 -6.5156
vt -288.345 474.291
f 2/2/1 1/1/1 4/4/1

v -5.77529e-015 17.668 39.6526
vt 756.457 0
vn 0 1 -0
vt 288.345 1165.16
vt 0 1165.16
f 5/5/2 4/6/2 1/7/2

v -5.77529e-015 17.668 27.1356
vt 756.457 315.895
f 4/6/2 5/5/2 6/8/2

vn 1 0 -0
vt 1165.16 0
vt 315.895 474.291
f 5/1/3 2/9/3 6/10/3

v -5.77529e-015 -1.12532 39.6526
f 2/9/3 5/1/3 7/3/3

vt -977.262 474.291
vn -0.838738 0 0.544535
vt 411.917 0
vt 411.917 474.291
f 1/11/4 7/12/4 5/13/4

vt -977.262 0
f 7/12/4 1/11/4 3/14/4

vn 0 -1 -0
vt -756.457 1165.16
f 7/2/5 3/7/5 2/15/5

v -5.77529e-015 25.1498 -6.5156
vt 1165.16 663.11
f 6/10/3 2/9/3 8/16/3

vt -756.457 663.11
f 2/2/1 4/4/1 8/17/1

usemtl Color_001
vt -655.254 1390
vn -0.366371 0.90829 0.201943
vt -881.222 938.648
vt 88.5074 938.648
f 8/18/6 4/19/6 6/20/6

g Mesh2 Group3 Group1 Model

usemtl Color_A06
v 29.9738 -1.12532 -6.5156
v -2.31012e-014 -1.12532 -6.5156
vt -756.457 0
v 29.9738 17.668 -6.5156
f 9/3/1 10/21/1 11/1/1

vt -756.457 1165.16
v -2.31012e-014 -1.12532 39.6526
f 10/22/5 9/7/5 12/21/5

vn 0.838738 0 0.544535
vt 411.917 0
f 9/14/7 11/11/7 12/23/7

v -2.31012e-014 17.668 39.6526
vt 411.917 474.291
f 13/24/7 12/23/7 11/11/7

vn -1 0 -0
f 12/3/8 13/1/8 10/9/8

v -2.31012e-014 17.668 27.1356
vt 315.895 474.291
f 14/25/8 10/9/8 13/1/8

v -2.31012e-014 25.1498 -6.5156
vt 1165.16 663.11
f 15/26/8 10/9/8 14/25/8

vt -756.457 663.11
v 18.5484 17.668 -6.5156
vt -288.345 474.291
f 15/27/1 16/28/1 10/21/1

usemtl Color_001
vt 88.5074 938.648
vn 0.366371 0.90829 0.201943
vt -881.222 938.648
vt -655.254 1390
f 14/29/9 16/30/9 15/31/9

usemtl Color_A06
vt 756.457 315.895
vt 756.457 0
vt 288.345 1165.16
f 14/32/2 13/33/2 16/34/2

f 11/7/2 16/34/2 13/33/2

f 16/28/1 11/1/1 10/21/1

g Mesh3 Group4 Group1 Model

v -43.9842 -21.1308 -6.5156
vt 1584.86 1.24358e-013
vn -0.958916 -1.08689e-016 0.283691
v -29.9738 -10.5961 40.8413
vt 338.498 265.866
v -43.9842 -10.5961 -6.5156
vt 1584.86 265.866
f 17/35/10 18/36/10 19/37/10

v -29.9738 -21.1308 -6.5156
vt 1193.19 -1166.64
vn -6.25548e-017 -0.976139 0.217145
vt 1193.19 57.7315
vt 1546.77 -1166.64
f 20/38/11 18/39/11 17/40/11

vt -1195.16 0
v -29.9738 17.668 -6.5156
vt -1195.16 979.173
vt 0 265.866
f 20/41/3 21/42/3 18/43/3

v -29.9738 17.668 -17.5713
vt -1474.17 979.173
f 22/44/3 21/42/3 20/41/3

usemtl Color_008
vt 1193.19 1195.16
vt 1193.19 1474.17
v -43.9842 17.668 -6.5156
vt 1546.77 1195.16
f 21/45/2 22/46/2 23/47/2

v -43.9842 17.668 -17.5713
vt 1546.77 1474.17
f 24/48/2 23/47/2 22/46/2

usemtl Color_A06
vt 1474.17 979.173
v -43.9842 -21.1308 -17.5713
vt 1474.17 0
vt 1195.16 979.173
f 24/49/8 25/50/8 23/51/8

vt -1546.77 979.173
vt -1193.19 979.173
vt -1546.77 0
f 24/52/1 22/53/1 25/54/1

v -29.9738 -21.1308 -17.5713
vt -1193.19 0
f 26/55/1 25/54/1 22/53/1

vt -1193.19 1474.17
vt -1193.19 1195.16
vt -1546.77 1474.17
f 26/56/5 20/57/5 25/58/5

vt -1474.17 0
f 26/59/3 22/44/3 20/41/3

vt -1546.77 1195.16
f 17/60/5 25/58/5 20/57/5

vt 1195.16 0
vt 1195.16 265.866
f 17/61/8 19/62/8 25/50/8

v -43.9842 7.4578 -6.5156
vt 1195.16 721.496
f 27/63/8 25/50/8 19/62/8

f 23/51/8 25/50/8 27/63/8

v -43.9842 7.4578 40.8413
vt 0 721.496
f 27/63/8 28/64/8 23/51/8

vt 1546.77 0
v -58.7075 7.4578 6.93844
vt 1918.35 855.615
f 28/65/2 27/47/2 29/66/2

vt -838.971 721.496
vn -0.674571 -1.40662e-017 -0.73821
vt -335.624 721.496
v -58.7075 -10.5961 6.93844
vt -838.971 265.866
f 29/67/12 27/68/12 30/69/12

vt -335.624 265.866
f 19/70/12 30/69/12 27/68/12

vt -1918.35 855.615
v -43.9842 -10.5961 40.8413
f 30/71/5 19/60/5 31/54/5

f 18/55/5 31/54/5 19/60/5

usemtl Color_001
vt 1193.19 265.866
vn 0 0 1
v -41.1825 -7.7944 40.8413
vt 1476.06 336.573
vt 1546.77 265.866
f 18/72/13 32/73/13 31/74/13

v -32.7755 -7.7944 40.8413
vt 1263.9 336.573
f 32/73/13 18/72/13 33/75/13

v -29.9738 7.4578 40.8413
vt 1193.19 721.496
f 34/76/13 33/75/13 18/72/13

v -32.7755 4.65612 40.8413
vt 1263.9 650.789
f 35/77/13 33/75/13 34/76/13

usemtl Color_A06
vt 0 336.573
vt 0 650.789
v -32.7755 -7.7944 25.1368
vt 396.339 336.573
f 33/78/8 35/79/8 36/80/8

v -32.7755 4.65612 25.1368
vt 396.339 650.789
f 37/81/8 36/80/8 35/79/8

usemtl Color_001
v -41.1825 4.65612 25.1368
vt 1476.06 650.789
f 37/77/13 38/82/13 36/75/13

usemtl Color_A06
vt -1263.9 396.339
vn 1.33958e-016 -1 -0
vt -1263.9 0
vt -1476.06 396.339
f 37/83/14 35/84/14 38/85/14

v -41.1825 4.65612 40.8413
vt -1476.06 0
f 39/86/14 38/85/14 35/84/14

vt -396.339 650.789
f 39/79/3 32/78/3 38/87/3

usemtl Color_001
vt 1546.77 721.496
f 39/82/13 28/88/13 32/73/13

f 35/77/13 28/88/13 39/82/13

f 28/88/13 35/77/13 34/76/13

usemtl Color_008
vt 1193.19 152.061
vn 5.05292e-032 0.977538 0.210758
vt 1193.19 1374.68
vt 1546.77 152.061
f 34/89/15 21/90/15 28/91/15

usemtl Color_A06
f 34/64/3 18/43/3 21/42/3

usemtl Color_008
vt 1546.77 1374.68
f 23/92/15 28/91/15 21/90/15

usemtl Color_001
f 28/88/13 31/74/13 32/73/13

usemtl Color_A06
vt 616.137 265.866
vn -0.917239 0 0.398338
vt 616.137 721.496
vt 1548.95 265.866
f 31/93/16 28/94/16 30/95/16

vt 1548.95 721.496
f 29/96/16 30/95/16 28/94/16

v -41.1825 -7.7944 25.1368
vt -396.339 336.573
f 40/97/3 38/87/3 32/78/3

usemtl Color_001
f 40/73/13 36/75/13 38/82/13

usemtl Color_A06
vt 1476.06 396.339
vn -1.33958e-016 1 -0
vt 1476.06 0
vt 1263.9 396.339
f 40/98/17 32/99/17 36/100/17

vt 1263.9 0
f 33/101/17 36/100/17 32/99/17

g Mesh4 Group5 Group1 Model

v 43.9842 -10.5961 -6.5156
vt 1584.86 265.866
vn 0.958916 -1.08689e-016 0.283691
v 29.9738 -10.5961 40.8413
v 43.9842 -21.1308 -6.5156
vt 1584.86 1.24358e-013
f 41/102/18 42/36/18 43/103/18

v 43.9842 -10.5961 40.8413
f 41/60/5 44/54/5 42/55/5

v 58.7075 -10.5961 6.93844
vt -1918.35 855.615
f 44/54/5 41/60/5 45/104/5

v 43.9842 7.4578 -6.5156
vt -335.624 721.496
vn 0.674571 -1.40662e-017 -0.73821
vt -838.971 265.866
vt -335.624 265.866
f 46/105/19 45/106/19 41/107/19

v 58.7075 7.4578 6.93844
vt -838.971 721.496
f 45/106/19 46/105/19 47/108/19

vt 1918.35 855.615
v 43.9842 7.4578 40.8413
f 47/109/2 46/47/2 48/65/2

v 43.9842 17.668 -6.5156
f 49/51/3 48/64/3 46/63/3

usemtl Color_008
v 29.9738 17.668 -6.5156
vn -5.05292e-032 0.977538 0.210758
f 50/90/20 48/91/20 49/92/20

v 29.9738 7.4578 40.8413
f 48/91/20 50/90/20 51/89/20

usemtl Color_A06
f 50/42/8 42/43/8 51/64/8

v 29.9738 -21.1308 -6.5156
f 42/43/8 50/42/8 52/41/8

v 29.9738 17.668 -17.5713
f 52/41/8 50/42/8 53/44/8

usemtl Color_008
f 49/47/2 53/46/2 50/45/2

v 43.9842 17.668 -17.5713
f 53/46/2 49/47/2 54/48/2

usemtl Color_A06
v 43.9842 -21.1308 -17.5713
f 49/51/3 55/50/3 54/49/3

f 46/63/3 55/50/3 49/51/3

f 41/62/3 55/50/3 46/63/3

f 55/50/3 41/62/3 43/61/3

f 52/57/5 55/58/5 43/60/5

v 29.9738 -21.1308 -17.5713
f 55/58/5 52/57/5 56/56/5

f 52/41/8 53/44/8 56/59/8

f 53/53/1 55/54/1 56/55/1

f 55/54/1 53/53/1 54/52/1

vn 6.25548e-017 -0.976139 0.217145
f 43/40/21 42/39/21 52/38/21

usemtl Color_001
v 32.7755 -7.7944 40.8413
f 42/72/13 57/75/13 51/76/13

v 41.1825 -7.7944 40.8413
vt 1476.06 336.573
f 57/75/13 42/72/13 58/110/13

f 44/74/13 58/110/13 42/72/13

f 58/110/13 44/74/13 48/88/13

usemtl Color_A06
vn 0.917239 0 0.398338
vt 616.137 721.496
vt 616.137 265.866
f 45/95/22 48/111/22 44/112/22

f 48/111/22 45/95/22 47/96/22

usemtl Color_001
v 41.1825 4.65612 40.8413
vt 1476.06 650.789
f 58/110/13 48/88/13 59/113/13

v 32.7755 4.65612 40.8413
f 59/113/13 48/88/13 60/77/13

f 51/76/13 60/77/13 48/88/13

f 51/76/13 57/75/13 60/77/13

usemtl Color_A06
v 32.7755 -7.7944 25.1368
f 61/80/3 60/79/3 57/78/3

v 32.7755 4.65612 25.1368
f 60/79/3 61/80/3 62/81/3

usemtl Color_001
v 41.1825 4.65612 25.1368
f 61/75/13 63/113/13 62/77/13

v 41.1825 -7.7944 25.1368
f 63/113/13 61/75/13 64/110/13

usemtl Color_A06
vn 1.33958e-016 1 -0
vt 1476.06 0
vt 1476.06 396.339
f 61/100/23 58/114/23 64/115/23

f 58/114/23 61/100/23 57/101/23

f 58/78/8 63/87/8 64/97/8

f 63/87/8 58/78/8 59/79/8

vn -1.33958e-016 -1 -0
vt -1476.06 396.339
vt -1476.06 0
f 60/84/24 63/116/24 59/117/24

f 63/116/24 60/84/24 62/83/24

