# Alias OBJ Model File
# Exported from SketchUp, (c) 2000-2006 Google, Inc.
# File units = meters

mtllib minigunner.mtl

g Mesh1 Group1 Model

usemtl Color_F01
v -6.77734 -1.70864 5.42957
vt 194.322 112.192
vn -0.816497 -0.57735 -7.67719e-014
v -6.77734 -1.70864 -5.17703
vt -223.26 112.192
v -1.47404 -9.20864 0.126269
vt -14.469 -249.445
f 1/1/1 2/2/1 3/3/1

vt 194.322 352.769
vn -0.57735 0.816497 -5.36793e-014
v -4.7361 -0.265269 -5.17703
vt -223.26 451.194
vt -223.26 352.769
f 1/4/2 4/5/2 2/6/2

v -4.7361 -0.265269 5.42957
vt 194.322 451.194
f 4/5/2 1/4/2 5/7/2

vt 414.456 50.1738
vn 0.288675 -0.408248 0.866025
vt 226.593 435.882
vt 150.353 373.632
f 3/8/3 5/9/3 1/10/3

v 0.567205 -7.76527 0.126269
vt 490.696 112.423
f 5/9/3 3/8/3 6/11/3

vt -141.202 384.84
vn 0.288675 -0.408248 -0.866025
vt -481.545 123.631
vt -405.305 61.3814
f 2/12/4 6/13/4 3/14/4

vt -217.442 447.089
f 6/13/4 2/12/4 4/15/4

vt -512.416 54.7517
vn 7.67719e-014 -0.57735 -0.816497
vt -303.624 416.389
v 5.87051 -0.265269 -5.17703
vt -721.207 416.389
f 6/16/5 4/17/5 7/18/5

usemtl Color_001
v -2.97069 -0.265269 -3.41163
vt 155.12 372.564
vn 0 1 -0
vt 352.101 667.839
vt 56.8258 372.564
f 8/19/6 7/20/6 4/21/6

v 4.1051 -0.265269 -3.41163
vt 352.101 569.545
f 7/20/6 8/19/6 9/22/6

v -2.97069 4.23073 -3.41163
vt -373.128 529.109
vn 9.6978e-014 -2.29889e-015 -1
vt -651.703 352.101
vt -373.128 352.101
f 10/23/7 9/24/7 8/25/7

v 4.1051 4.23073 -3.41163
vt -651.703 529.109
f 9/24/7 10/23/7 11/26/7

vt -155.12 372.564
vn -5.445e-016 -1 -3.8115e-015
v 5.87051 4.23073 -5.17703
vt -352.101 667.839
vt -352.101 569.545
f 10/27/8 12/28/8 11/29/8

v -4.7361 4.23073 -5.17703
vt -56.8258 372.564
f 12/28/8 10/27/8 13/30/8

v -4.7361 4.23073 5.42957
vt -352.101 77.288
f 10/27/8 14/31/8 13/30/8

v -2.97069 4.23073 3.66416
vt -352.101 175.582
f 14/31/8 10/27/8 15/32/8

vt -153.756 352.101
vn -1 1.43681e-015 -9.448e-014
vt 124.818 529.109
vt -153.756 529.109
f 8/33/9 15/34/9 10/35/9

v -2.97069 -0.265269 3.66416
vt 124.818 352.101
f 15/34/9 8/33/9 16/36/9

vt 352.101 77.288
vt 352.101 175.582
f 8/19/6 5/37/6 16/38/6

f 5/37/6 8/19/6 4/21/6

v 5.87051 -0.265269 5.42957
vt 647.377 372.564
f 16/38/6 5/37/6 17/39/6

usemtl Color_F01
v -4.7361 -1.70864 7.47081
vt 303.624 -53.8029
vn -5.49005e-014 0.816497 0.57735
vt 721.207 44.6223
vt 303.624 44.6223
f 18/40/10 17/41/10 5/42/10

v 5.87051 -1.70864 7.47081
vt 721.207 -53.8029
f 17/41/10 18/40/10 19/43/10

vt 721.207 399.682
vn -7.70495e-014 -0.57735 0.816497
vt 303.624 399.682
v 0.567205 -9.20864 2.16751
vt 512.416 38.0444
f 19/44/11 18/45/11 20/46/11

vt 88.336 178.743
vn -0.866025 -0.408248 -0.288675
vt -99.5267 -206.965
vt 164.576 116.494
f 5/47/12 20/48/12 18/49/12

vt -175.766 -144.715
f 20/48/12 5/47/12 6/50/12

vt -148.314 252.2
vn 0.866025 -0.408248 -0.288675
vt -488.656 513.409
vt -224.553 189.951
f 6/51/13 19/52/13 20/53/13

vt -412.416 575.658
f 19/52/13 6/51/13 17/54/13

vt 481.545 -19.8817
vn -0.288675 -0.408248 0.866025
v 7.91175 -1.70864 5.42957
vt 821.887 241.327
vt 745.647 303.576
f 6/55/14 21/56/14 17/57/14

v 2.60845 -9.20864 0.126269
vt 557.784 -82.1313
f 21/56/14 6/55/14 22/58/14

vt -754.798 314.784
vn -0.288675 -0.408248 -0.866025
vt -566.935 -70.9237
vt -490.696 -8.67412
f 7/59/15 22/60/15 6/61/15

v 7.91175 -1.70864 -5.17703
vt -831.038 252.535
f 22/60/15 7/59/15 23/62/15

vt -194.322 -385.577
vn 0.57735 0.816497 5.51226e-014
vt 223.26 -484.002
vt 223.26 -385.577
f 17/63/16 23/64/16 7/65/16

vt -194.322 -484.002
f 23/64/16 17/63/16 21/66/16

vt -194.322 703.879
vn 0.816497 -0.57735 7.82152e-014
vt 14.469 342.241
vt 223.26 703.879
f 21/67/17 22/68/17 23/69/17

usemtl Color_001
v 4.1051 -0.265269 3.66416
vt 549.083 372.564
f 7/20/6 24/70/6 17/39/6

f 7/20/6 9/22/6 24/70/6

vt 153.756 352.101
vn 1 0 9.64229e-014
v 4.1051 4.23073 3.66416
vt -124.818 529.109
vt -124.818 352.101
f 9/71/18 25/72/18 24/73/18

vt 153.756 529.109
f 25/72/18 9/71/18 11/74/18

v 5.87051 4.23073 5.42957
vt -647.377 372.564
vt -549.083 372.564
f 11/29/8 26/75/8 25/76/8

f 11/29/8 12/28/8 26/75/8

usemtl Color_F01
vt -194.322 15.6269
vn 0.816497 0.57735 8.07132e-014
vt 223.26 15.6269
v 0.567205 11.7307 0.126269
vt 14.469 377.264
f 26/77/19 12/78/19 27/79/19

vt -721.207 303.117
vn 8.03801e-014 0.57735 -0.816497
vt -303.624 303.117
vt -512.416 664.754
f 12/80/20 13/81/20 27/82/20

vt -14.469 968.951
vn -0.816497 0.57735 -7.63278e-014
vt -223.26 607.313
vt 194.322 607.313
f 27/83/21 13/84/21 14/85/21

vt 721.207 319.824
vn -8.23785e-014 0.57735 0.816497
vt 512.416 681.461
vt 303.624 319.824
f 26/86/22 27/87/22 14/88/22

usemtl Color_001
f 14/31/8 15/32/8 26/75/8

f 26/75/8 15/32/8 25/76/8

vt 373.128 529.109
vn -9.64229e-014 5.41881e-015 1
v 2.14429 3.098 3.66416
vt 574.506 484.514
vt 651.703 529.109
f 15/89/23 28/90/23 25/91/23

v -0.934639 3.09409 3.66416
vt 453.288 484.359
f 15/89/23 29/92/23 28/90/23

v -1.78625 2.85274 3.66416
vt 419.76 474.858
f 15/89/23 30/93/23 29/92/23

v -2.21777 2.0799 3.66416
vt 402.771 444.431
f 15/89/23 31/94/23 30/93/23

v -1.97642 1.22829 3.66416
vt 412.273 410.903
f 15/89/23 32/95/23 31/94/23

vt 373.128 352.101
f 16/96/23 32/95/23 15/89/23

v -1.20358 0.796774 3.66416
vt 442.699 393.914
f 32/95/23 16/96/23 33/97/23

v 2.4791 0.809362 3.66416
vt 587.687 394.41
f 16/96/23 34/98/23 33/97/23

vt 651.703 352.101
f 24/99/23 34/98/23 16/96/23

v 3.23922 1.2629 3.66416
vt 617.613 412.265
f 34/98/23 24/99/23 35/100/23

f 35/100/23 24/99/23 25/91/23

v 3.45601 2.12109 3.66416
vt 626.148 446.052
f 35/100/23 25/91/23 36/101/23

v 3.00248 2.88121 3.66416
vt 608.292 475.979
f 36/101/23 25/91/23 37/102/23

f 37/102/23 25/91/23 28/90/23

v 2.14429 3.098 10.7242
vt -402.771 -438.34
vn 0.244921 0.969543 1.93734e-014
vt -124.818 -473.188
vt -124.818 -438.34
f 38/103/24 37/104/24 28/105/24

v 3.00248 2.88121 10.7242
vt -402.771 -473.188
f 37/104/24 38/103/24 39/106/24

usemtl Color_008
v 1.38416 2.64447 10.7242
vt 544.579 466.658
vn -9.80327e-014 3.75407e-015 1
vt 608.292 475.979
vt 574.506 484.514
f 40/107/25 39/108/25 38/109/25

v 3.45601 2.12109 10.7242
vt 626.148 446.052
f 40/107/25 41/110/25 39/108/25

v 1.16737 1.78628 10.7242
vt 536.044 432.871
f 42/111/25 41/110/25 40/107/25

v 3.23922 1.2629 10.7242
vt 617.613 412.265
f 42/111/25 43/112/25 41/110/25

v 1.62091 1.02615 10.7242
vt 553.9 402.945
f 44/113/25 43/112/25 42/111/25

v 2.4791 0.809362 10.7242
vt 587.687 394.41
f 43/112/25 44/113/25 45/114/25

usemtl Color_001
vt 402.771 -438.34
vn -0.244921 -0.969543 -1.81244e-014
vt 124.818 -473.188
vt 402.771 -473.188
f 44/115/26 34/116/26 45/117/26

v 1.62091 1.02615 3.66416
vt 124.818 -438.34
f 34/116/26 44/115/26 46/118/26

vt 402.771 62.2212
vn -0.858756 -0.512385 -7.77156e-014
v 1.16737 1.78628 3.66416
vt 124.818 97.0695
vt 124.818 62.2212
f 44/119/27 47/120/27 46/121/27

vt 402.771 97.0695
f 47/120/27 44/119/27 42/122/27

vt 402.771 585.824
vn -0.969543 0.244921 -9.26481e-014
vt 124.818 550.976
vt 402.771 550.976
f 40/123/28 47/124/28 42/125/28

v 1.38416 2.64447 3.66416
vt 124.818 585.824
f 47/124/28 40/123/28 48/126/28

vt 402.771 706.769
vn -0.512385 0.858756 -5.15699e-014
vt 124.818 741.617
vt 124.818 706.769
f 40/127/29 28/128/29 48/129/29

vt 402.771 741.617
f 28/128/29 40/127/29 38/130/29

v -0.161803 2.66257 3.66416
vt 483.714 467.37
vt 544.579 466.658
f 49/131/23 48/132/23 28/90/23

v 0.0795442 1.81096 3.66416
vt 493.216 433.843
f 50/133/23 48/132/23 49/131/23

vt 536.044 432.871
f 50/133/23 47/134/23 48/132/23

v -0.351975 1.03812 3.66416
vt 476.227 403.416
f 51/135/23 47/134/23 50/133/23

vt 553.9 402.945
f 51/135/23 46/136/23 47/134/23

f 51/135/23 34/98/23 46/136/23

f 34/98/23 51/135/23 33/97/23

vt -124.818 568.18
vn 0.272663 -0.962109 2.91711e-014
v -1.20358 0.796774 10.7242
vt -402.771 533.331
vt -124.818 533.331
f 51/137/30 52/138/30 33/139/30

v -0.351975 1.03812 10.7242
vt -402.771 568.18
f 52/138/30 51/137/30 53/140/30

vt -124.818 584.396
vn 0.873116 -0.487512 8.54872e-014
v 0.0795442 1.81096 10.7242
vt -402.771 619.244
vt -402.771 584.396
f 51/141/31 54/142/31 53/143/31

vt -124.818 619.244
f 54/142/31 51/141/31 50/144/31

vt -124.818 317.77
vn 0.962109 0.272663 9.19265e-014
vt -402.771 282.922
vt -124.818 282.922
f 49/145/32 54/146/32 50/147/32

v -0.161803 2.66257 10.7242
vt -402.771 317.77
f 54/146/32 49/145/32 55/148/32

vt -124.818 -194.49
vn 0.487512 0.873116 4.30767e-014
v -0.934639 3.09409 10.7242
vt -402.771 -159.642
vt -402.771 -194.49
f 49/149/33 56/150/33 55/151/33

vt -124.818 -159.642
f 56/150/33 49/149/33 29/152/33

f 49/131/23 28/90/23 29/92/23

vt 124.818 568.18
vn -0.272663 0.962109 -3.16969e-014
v -1.78625 2.85274 10.7242
vt 402.771 533.331
vt 402.771 568.18
f 29/153/34 57/154/34 56/155/34

vt 124.818 533.331
f 57/154/34 29/153/34 30/156/34

vt 124.818 584.396
vn -0.873116 0.487512 -8.50986e-014
vt 402.771 619.244
vt 124.818 619.244
f 31/157/35 57/158/35 30/159/35

v -2.21777 2.0799 10.7242
vt 402.771 584.396
f 57/158/35 31/157/35 58/160/35

vt 124.818 317.77
vn -0.962109 -0.272663 -9.04832e-014
v -1.97642 1.22829 10.7242
vt 402.771 282.922
vt 402.771 317.77
f 31/161/36 59/162/36 58/163/36

vt 124.818 282.922
f 59/162/36 31/161/36 32/164/36

vt 124.818 -194.49
vn -0.487512 -0.873116 -4.15501e-014
vt 402.771 -159.642
vt 124.818 -159.642
f 33/165/37 59/166/37 32/167/37

vt 402.771 -194.49
f 59/166/37 33/165/37 52/168/37

usemtl Color_008
vt 476.227 403.416
vn -9.58122e-014 7.5033e-015 1
vt 412.273 410.903
vt 442.699 393.914
f 53/169/38 59/170/38 52/171/38

vt 493.216 433.843
f 59/170/38 53/169/38 54/172/38

vt 402.771 444.431
f 59/170/38 54/172/38 58/173/38

vt 483.714 467.37
f 58/173/38 54/172/38 55/174/38

vt 419.76 474.858
f 58/173/38 55/174/38 57/175/38

vt 453.288 484.359
f 57/175/38 55/174/38 56/176/38

usemtl Color_001
vt -124.818 741.617
vn 0.512385 -0.858756 5.33462e-014
vt -402.771 706.769
vt -124.818 706.769
f 35/177/39 45/178/39 34/179/39

vt -402.771 741.617
f 45/178/39 35/177/39 43/180/39

vt -124.818 550.976
vn 0.969543 -0.244921 9.39249e-014
vt -402.771 585.824
vt -402.771 550.976
f 35/181/40 41/182/40 43/183/40

vt -124.818 585.824
f 41/182/40 35/181/40 36/184/40

vt -124.818 97.0695
vn 0.858756 0.512385 7.9603e-014
vt -402.771 62.2212
vt -124.818 62.2212
f 37/185/41 41/186/41 36/187/41

vt -402.771 97.0695
f 41/186/41 37/185/41 39/188/41

f 16/38/6 17/39/6 24/70/6

