# Alias OBJ Model File
# Exported from SketchUp, (c) 2000-2006 Google, Inc.
# File units = meters

mtllib minigunner2.mtl

g Mesh1 Group1 Model

usemtl Color_F01
v -6.77734 -1.70864 5.42957
vt 194.322 112.192
vn -0.816497 -0.57735 -7.67719e-014
v -6.77734 -1.70864 -5.17703
vt -223.26 112.192
v -1.47404 -9.20864 0.126269
vt -14.469 -249.445
f 1/1/1 2/2/1 3/3/1

vt 194.322 352.769
vn -0.57735 0.816497 -5.36793e-014
v -4.7361 -0.265269 -5.17703
vt -223.26 451.194
vt -223.26 352.769
f 1/4/2 4/5/2 2/6/2

v -4.7361 -0.265269 5.42957
vt 194.322 451.194
f 4/5/2 1/4/2 5/7/2

vt 414.456 50.1738
vn 0.288675 -0.408248 0.866025
vt 226.593 435.882
vt 150.353 373.632
f 3/8/3 5/9/3 1/10/3

v 0.567205 -7.76527 0.126269
vt 490.696 112.423
f 5/9/3 3/8/3 6/11/3

vt -141.202 384.84
vn 0.288675 -0.408248 -0.866025
vt -481.545 123.631
vt -405.305 61.3814
f 2/12/4 6/13/4 3/14/4

vt -217.442 447.089
f 6/13/4 2/12/4 4/15/4

vt -512.416 54.7517
vn 7.67719e-014 -0.57735 -0.816497
vt -303.624 416.389
v 5.87051 -0.265269 -5.17703
vt -721.207 416.389
f 6/16/5 4/17/5 7/18/5

usemtl Color_001
v -2.97069 -0.265269 -3.41163
vt 155.12 372.564
vn 0 1 -0
vt 352.101 667.839
vt 56.8258 372.564
f 8/19/6 7/20/6 4/21/6

v 4.1051 -0.265269 -3.41163
vt 352.101 569.545
f 7/20/6 8/19/6 9/22/6

v -2.97069 4.23073 -3.41163
vt -373.128 529.109
vn 9.6978e-014 -2.29889e-015 -1
vt -651.703 352.101
vt -373.128 352.101
f 10/23/7 9/24/7 8/25/7

v 4.1051 4.23073 -3.41163
vt -651.703 529.109
f 9/24/7 10/23/7 11/26/7

vt -155.12 372.564
vn -5.445e-016 -1 -3.8115e-015
v 5.87051 4.23073 -5.17703
vt -352.101 667.839
vt -352.101 569.545
f 10/27/8 12/28/8 11/29/8

v -4.7361 4.23073 -5.17703
vt -56.8258 372.564
f 12/28/8 10/27/8 13/30/8

v -4.7361 4.23073 5.42957
vt -352.101 77.288
f 10/27/8 14/31/8 13/30/8

v -2.97069 4.23073 3.66416
vt -352.101 175.582
f 14/31/8 10/27/8 15/32/8

v -2.97069 2.68749 2.12092
vt 64.0607 468.352
vn -1 1.43681e-015 -9.448e-014
vt 124.818 529.109
vt -153.756 529.109
f 16/33/9 15/34/9 10/35/9

v -2.97069 1.27797 2.12092
vt 64.0607 412.859
f 15/34/9 16/33/9 17/36/9

vt 373.128 468.352
vn -9.448e-014 9.21905e-015 1
v -15.2677 1.27797 2.12092
vt -111.006 412.859
vt 373.128 412.859
f 16/37/10 18/38/10 17/39/10

v -15.2677 2.68749 2.12092
vt -111.006 468.352
f 18/38/10 16/37/10 19/40/10

v -12.1613 2.68749 1.1655
vt 26.6857 -10.7139
vn 1.40847e-015 1 8.14327e-016
vt -33.195 -123.79
vt 309.139 218.544
f 20/41/11 19/42/11 16/43/11

v -14.3723 2.68749 1.1655
vt -34.866 -72.2656
f 21/44/11 19/42/11 20/41/11

v -14.3723 2.68749 -1.0455
vt -96.4177 -10.7139
f 22/45/11 19/42/11 21/44/11

v -15.2677 2.68749 -1.86838
vt -144.253 -12.7328
f 19/42/11 22/45/11 23/46/11

v -2.97069 2.68749 -1.86838
vt 198.082 329.602
f 22/45/11 24/47/11 23/46/11

v -12.1613 2.68749 -1.0455
vt -34.866 50.8378
f 24/47/11 22/45/11 25/48/11

vt 75.7535 468.352
vn 0 8.16273e-016 -1
v -12.1613 4.76149 -1.0455
vt -11.2937 550.005
vt -11.2937 468.352
f 22/49/12 26/50/12 25/51/12

v -14.3723 4.76149 -1.0455
vt 75.7535 550.005
f 26/50/12 22/49/12 27/52/12

vt -60.6017 468.352
vn -1 0 -0
v -14.3723 4.76149 1.1655
vt 26.4455 550.005
vt -60.6017 550.005
f 22/53/13 28/54/13 27/55/13

vt 26.4455 468.352
f 28/54/13 22/53/13 21/56/13

vt -75.7535 468.352
vn 0 -8.16273e-016 1
v -13.8546 3.20516 1.1655
vt -55.3726 488.733
vt -75.7535 550.005
f 21/57/14 29/58/14 28/59/14

vt 11.2937 468.352
f 29/58/14 21/57/14 20/60/14

v -12.679 3.20516 1.1655
vt -9.08712 488.733
f 29/58/14 20/60/14 30/61/14

v -12.679 4.24382 1.1655
vt -9.08712 529.624
f 30/61/14 20/60/14 31/62/14

v -12.1613 4.76149 1.1655
vt 11.2937 550.005
f 32/63/14 31/62/14 20/60/14

v -13.8546 4.24382 1.1655
vt -55.3726 529.624
f 32/63/14 33/64/14 31/62/14

f 28/59/14 33/64/14 32/63/14

f 33/64/14 28/59/14 29/58/14

vt 26.4455 488.733
v -13.8546 4.24382 10.9465
vt 411.524 529.624
vt 26.4455 529.624
f 29/65/13 34/66/13 33/67/13

v -13.8546 3.20516 10.9465
vt 411.524 488.733
f 34/66/13 29/65/13 35/68/13

vt -12.2743 -25.1254
vn 4.93038e-032 -1 -6.95047e-016
vt -251.837 -330.146
vt 20.4545 -57.8542
f 30/69/15 35/70/15 29/71/15

v -12.679 3.20516 10.9465
vt -284.566 -297.417
f 35/70/15 30/69/15 36/72/15

vt -26.4455 488.733
vn 1 0 -0
v -12.679 4.24382 10.9465
vt -411.524 529.624
vt -411.524 488.733
f 30/73/16 37/74/16 36/75/16

vt -26.4455 529.624
f 37/74/16 30/73/16 31/76/16

vt 12.2743 -25.1254
vn -4.93038e-032 1 6.95047e-016
vt 251.837 -330.146
vt 284.566 -297.417
f 31/77/17 34/78/17 37/79/17

vt -20.4545 -57.8542
f 34/78/17 31/77/17 33/80/17

usemtl Color_009
vt -55.3726 529.624
vn 0 -6.95047e-016 1
vt -9.08712 488.733
vt -9.08712 529.624
f 34/81/18 36/82/18 37/83/18

vt -55.3726 488.733
f 36/82/18 34/81/18 35/84/18

usemtl Color_001
vt -34.866 50.8378
vn 0 1 8.16273e-016
vt -34.866 -72.2656
vt 26.6857 -10.7139
f 26/85/19 28/86/19 32/87/19

vt -96.4177 -10.7139
f 28/86/19 26/85/19 27/88/19

vt -26.4455 550.005
vt 60.6017 468.352
vt 60.6017 550.005
f 32/89/16 25/90/16 26/91/16

vt -26.4455 468.352
f 25/90/16 32/89/16 20/92/16

f 24/47/11 25/48/11 20/41/11

f 20/41/11 16/43/11 24/47/11

vt -92.9986 468.352
f 16/33/9 10/35/9 24/93/9

vt -153.756 352.101
f 24/93/9 10/35/9 8/94/9

v -2.97069 1.27797 -1.86838
vt -92.9986 412.859
f 8/94/9 38/95/9 24/93/9

f 8/94/9 17/36/9 38/95/9

v -2.97069 -0.265269 3.66416
vt 124.818 352.101
f 39/96/9 17/36/9 8/94/9

f 17/36/9 39/96/9 15/34/9

vt 373.128 352.101
vn -9.64229e-014 5.41881e-015 1
v -1.97642 1.22829 3.66416
vt 412.273 410.903
vt 373.128 529.109
f 39/97/20 40/98/20 15/99/20

v -1.20358 0.796774 3.66416
vt 442.699 393.914
f 40/98/20 39/97/20 41/100/20

v 2.4791 0.809362 3.66416
vt 587.687 394.41
f 39/97/20 42/101/20 41/100/20

v 4.1051 -0.265269 3.66416
vt 651.703 352.101
f 43/102/20 42/101/20 39/97/20

v 3.23922 1.2629 3.66416
vt 617.613 412.265
f 42/101/20 43/102/20 44/103/20

v 4.1051 4.23073 3.66416
vt 651.703 529.109
f 44/103/20 43/102/20 45/104/20

vt -124.818 352.101
vn 1 0 9.64229e-014
v 4.1051 1.27797 2.12092
vt -64.0607 412.859
vt -124.818 529.109
f 43/105/21 46/106/21 45/107/21

vt 153.756 352.101
f 46/106/21 43/105/21 9/108/21

vt 549.083 372.564
f 7/20/6 9/22/6 43/109/6

v 5.87051 -0.265269 5.42957
vt 647.377 372.564
f 7/20/6 43/109/6 47/110/6

vt 352.101 77.288
f 43/109/6 5/111/6 47/110/6

vt 352.101 175.582
f 39/112/6 5/111/6 43/109/6

f 8/19/6 5/111/6 39/112/6

f 5/111/6 8/19/6 4/21/6

usemtl Color_F01
v -4.7361 -1.70864 7.47081
vt 303.624 -53.8029
vn -5.4845e-014 0.816497 0.57735
vt 721.207 44.6223
vt 303.624 44.6223
f 48/113/22 47/114/22 5/115/22

v 5.87051 -1.70864 7.47081
vt 721.207 -53.8029
f 47/114/22 48/113/22 49/116/22

vt 721.207 399.682
vn -7.70495e-014 -0.57735 0.816497
vt 303.624 399.682
v 0.567205 -9.20864 2.16751
vt 512.416 38.0444
f 49/117/23 48/118/23 50/119/23

vt 88.336 178.743
vn -0.866025 -0.408248 -0.288675
vt -99.5267 -206.965
vt 164.576 116.494
f 5/120/24 50/121/24 48/122/24

vt -175.766 -144.715
f 50/121/24 5/120/24 6/123/24

vt -148.314 252.2
vn 0.866025 -0.408248 -0.288675
vt -488.656 513.409
vt -224.553 189.951
f 6/124/25 49/125/25 50/126/25

vt -412.416 575.658
f 49/125/25 6/124/25 47/127/25

vt 481.545 -19.8817
vn -0.288675 -0.408248 0.866025
v 7.91175 -1.70864 5.42957
vt 821.887 241.327
vt 745.647 303.576
f 6/128/26 51/129/26 47/130/26

v 2.60845 -9.20864 0.126269
vt 557.784 -82.1313
f 51/129/26 6/128/26 52/131/26

vt -754.798 314.784
vn -0.288675 -0.408248 -0.866025
vt -566.935 -70.9237
vt -490.696 -8.67412
f 7/132/27 52/133/27 6/134/27

v 7.91175 -1.70864 -5.17703
vt -831.038 252.535
f 52/133/27 7/132/27 53/135/27

vt -194.322 -385.577
vn 0.57735 0.816497 5.51226e-014
vt 223.26 -484.002
vt 223.26 -385.577
f 47/136/28 53/137/28 7/138/28

vt -194.322 -484.002
f 53/137/28 47/136/28 51/139/28

vt -194.322 703.879
vn 0.816497 -0.57735 7.82152e-014
vt 14.469 342.241
vt 223.26 703.879
f 51/140/29 52/141/29 53/142/29

usemtl Color_001
v 4.1051 1.27797 -1.86838
vt 92.9986 412.859
f 46/106/21 9/108/21 54/143/21

v 4.1051 2.68749 -1.86838
vt 92.9986 468.352
f 54/143/21 9/108/21 55/144/21

vt 153.756 529.109
f 11/145/21 55/144/21 9/108/21

v 4.1051 2.68749 2.12092
vt -64.0607 468.352
f 11/145/21 56/146/21 55/144/21

f 45/107/21 56/146/21 11/145/21

f 56/146/21 45/107/21 46/106/21

vt 651.703 412.859
vn -9.60343e-014 1.53651e-015 1
v 16.6591 2.68749 2.12092
vt 1145.95 468.352
vt 651.703 468.352
f 46/147/30 57/148/30 56/149/30

v 16.6591 1.27797 2.12092
vt 1145.95 412.859
f 57/148/30 46/147/30 58/150/30

vt -506.121 415.526
vn -1.41899e-029 -1 -1.35225e-042
v 16.6591 1.27797 -1.86838
vt -744.552 876.072
vt -855.61 765.015
f 46/151/31 59/152/31 58/153/31

vt -395.063 526.583
f 59/152/31 46/151/31 54/154/31

vt -651.703 468.352
vn 9.60343e-014 2.04868e-015 -1
vt -1145.95 412.859
vt -651.703 412.859
f 55/155/32 59/156/32 54/157/32

v 16.6591 2.68749 -1.86838
vt -1145.95 468.352
f 59/156/32 55/155/32 60/158/32

vt 395.063 526.583
vn 1.41899e-029 1 1.37327e-042
v 13.5652 2.68749 -1.03345
vt 681.667 766.699
vt 744.552 876.072
f 55/159/33 61/160/33 60/161/33

vt 506.121 415.526
f 61/160/33 55/159/33 56/162/33

v 13.5652 2.68749 1.32355
vt 747.283 701.083
f 56/162/33 62/163/33 61/160/33

vt 855.61 765.015
f 62/163/33 56/162/33 57/164/33

v 15.9222 2.68749 1.32355
vt 812.899 766.699
f 62/163/33 57/164/33 63/165/33

v 15.9222 2.68749 -1.03345
vt 747.283 832.315
f 57/164/33 64/166/33 63/165/33

f 60/161/33 64/166/33 57/164/33

f 60/161/33 61/160/33 64/166/33

vt -1024.15 468.352
vn 0 0 -1
v 15.9222 4.12949 -1.03345
vt -1116.94 525.123
vt -1116.94 468.352
f 61/167/34 65/168/34 64/169/34

v 13.5652 4.12949 -1.03345
vt -1024.15 525.123
f 65/168/34 61/167/34 66/170/34

vt -60.1271 468.352
v 13.5652 4.12949 1.32355
vt 32.6682 525.123
vt -60.1271 525.123
f 61/171/13 67/172/13 66/173/13

vt 32.6682 468.352
f 67/172/13 61/171/13 62/174/13

vt 1024.15 468.352
vn 0 0 1
v 13.9832 3.10549 1.32355
vt 1040.61 484.808
vt 1024.15 525.123
f 62/175/35 68/176/35 67/177/35

vt 1116.94 468.352
f 68/176/35 62/175/35 63/178/35

v 15.5042 3.10549 1.32355
vt 1100.49 484.808
f 68/176/35 63/178/35 69/179/35

v 15.5042 3.71149 1.32355
vt 1100.49 508.667
f 69/179/35 63/178/35 70/180/35

v 15.9222 4.12949 1.32355
vt 1116.94 525.123
f 71/181/35 70/180/35 63/178/35

v 13.9832 3.71149 1.32355
vt 1040.61 508.667
f 71/181/35 72/182/35 70/180/35

f 67/177/35 72/182/35 71/181/35

f 72/182/35 67/177/35 68/176/35

vt 32.6682 484.808
v 13.9832 3.71149 10.9465
vt 411.524 508.667
vt 32.6682 508.667
f 68/183/13 73/184/13 72/185/13

v 13.9832 3.10549 10.9465
vt 411.524 484.808
f 73/184/13 68/183/13 74/186/13

vt -801.262 755.062
vn 0 -1 -0
vt -1026.81 444.828
vt -758.919 712.72
f 69/187/36 74/188/36 68/189/36

v 15.5042 3.10549 10.9465
vt -1069.15 487.171
f 74/188/36 69/187/36 75/190/36

vt -32.6682 508.667
vt -411.524 484.808
vt -32.6682 484.808
f 70/191/16 75/192/16 69/193/16

v 15.5042 3.71149 10.9465
vt -411.524 508.667
f 75/192/16 70/191/16 76/194/16

vt 801.262 755.062
vt 1026.81 444.828
vt 1069.15 487.171
f 70/195/6 73/196/6 76/197/6

vt 758.919 712.72
f 73/196/6 70/195/6 72/198/6

usemtl Color_009
f 73/182/35 75/179/35 76/180/35

f 75/179/35 73/182/35 74/176/35

usemtl Color_001
f 65/166/6 67/163/6 71/165/6

f 67/163/6 65/166/6 66/160/6

vt -32.6682 468.352
vt 60.1271 525.123
vt -32.6682 525.123
f 63/199/16 65/200/16 71/201/16

vt 60.1271 468.352
f 65/200/16 63/199/16 64/202/16

vt -64.0607 412.859
vn 1 -1.41899e-029 9.60898e-014
vt 92.9986 468.352
vt -64.0607 468.352
f 58/203/37 60/204/37 57/205/37

f 60/204/37 58/203/37 59/143/37

v 5.87051 4.23073 5.42957
vt -647.377 372.564
vt -549.083 372.564
f 11/29/8 77/206/8 45/207/8

f 11/29/8 12/28/8 77/206/8

usemtl Color_F01
vt -194.322 15.6269
vn 0.816497 0.57735 8.07132e-014
vt 223.26 15.6269
v 0.567205 11.7307 0.126269
vt 14.469 377.264
f 77/208/38 12/209/38 78/210/38

vt -721.207 303.117
vn 8.03801e-014 0.57735 -0.816497
vt -303.624 303.117
vt -512.416 664.754
f 12/211/39 13/212/39 78/213/39

vt -14.469 968.951
vn -0.816497 0.57735 -7.62723e-014
vt -223.26 607.313
vt 194.322 607.313
f 78/214/40 13/215/40 14/216/40

vt 721.207 319.824
vn -8.23785e-014 0.57735 0.816497
vt 512.416 681.461
vt 303.624 319.824
f 77/217/41 78/218/41 14/219/41

usemtl Color_001
f 14/31/8 15/32/8 77/206/8

f 77/206/8 15/32/8 45/207/8

v 2.14429 3.098 3.66416
vt 574.506 484.514
f 15/99/20 79/220/20 45/104/20

v -0.934639 3.09409 3.66416
vt 453.288 484.359
f 15/99/20 80/221/20 79/220/20

v -1.78625 2.85274 3.66416
vt 419.76 474.858
f 15/99/20 81/222/20 80/221/20

v -2.21777 2.0799 3.66416
vt 402.771 444.431
f 15/99/20 82/223/20 81/222/20

f 15/99/20 40/98/20 82/223/20

v -1.97642 1.22829 10.7242
vt 402.771 282.922
vn -0.962109 -0.272663 -9.04277e-014
vt 124.818 317.77
vt 124.818 282.922
f 83/224/42 82/225/42 40/226/42

v -2.21777 2.0799 10.7242
vt 402.771 317.77
f 82/225/42 83/224/42 84/227/42

usemtl Color_008
vt 412.273 410.903
vn -9.58122e-014 7.5033e-015 1
v 0.0795442 1.81096 10.7242
vt 493.216 433.843
vt 402.771 444.431
f 83/228/43 85/229/43 84/230/43

v -0.351975 1.03812 10.7242
vt 476.227 403.416
f 83/228/43 86/231/43 85/229/43

v -1.20358 0.796774 10.7242
vt 442.699 393.914
f 86/231/43 83/228/43 87/232/43

usemtl Color_001
vt 402.771 -159.642
vn -0.487512 -0.873116 -4.16056e-014
vt 124.818 -194.49
vt 402.771 -194.49
f 83/233/44 41/234/44 87/235/44

vt 124.818 -159.642
f 41/234/44 83/233/44 40/236/44

v -0.351975 1.03812 3.66416
vt -124.818 568.18
vn 0.272663 -0.962109 2.91711e-014
vt -402.771 533.331
vt -124.818 533.331
f 88/237/45 87/238/45 41/239/45

vt -402.771 568.18
f 87/238/45 88/237/45 86/240/45

vt -124.818 584.396
vn 0.873116 -0.487512 8.54872e-014
vt -402.771 619.244
vt -402.771 584.396
f 88/241/46 85/242/46 86/243/46

v 0.0795442 1.81096 3.66416
vt -124.818 619.244
f 85/242/46 88/241/46 89/244/46

vt 476.227 403.416
v 1.16737 1.78628 3.66416
vt 536.044 432.871
vt 493.216 433.843
f 88/245/20 90/246/20 89/247/20

v 1.62091 1.02615 3.66416
vt 553.9 402.945
f 88/245/20 91/248/20 90/246/20

f 88/245/20 42/101/20 91/248/20

f 42/101/20 88/245/20 41/100/20

vt 124.818 -473.188
vn -0.244921 -0.969543 -1.81383e-014
v 1.62091 1.02615 10.7242
vt 402.771 -438.34
vt 124.818 -438.34
f 42/249/47 92/250/47 91/251/47

v 2.4791 0.809362 10.7242
vt 402.771 -473.188
f 92/250/47 42/249/47 93/252/47

vt -124.818 741.617
vn 0.512385 -0.858756 5.34017e-014
vt -402.771 706.769
vt -124.818 706.769
f 44/253/48 93/254/48 42/255/48

v 3.23922 1.2629 10.7242
vt -402.771 741.617
f 93/254/48 44/253/48 94/256/48

vt -124.818 550.976
vn 0.969543 -0.244921 9.39249e-014
v 3.45601 2.12109 10.7242
vt -402.771 585.824
vt -402.771 550.976
f 44/257/49 95/258/49 94/259/49

v 3.45601 2.12109 3.66416
vt -124.818 585.824
f 95/258/49 44/257/49 96/260/49

vt 626.148 446.052
f 44/103/20 45/104/20 96/261/20

v 3.00248 2.88121 3.66416
vt 608.292 475.979
f 96/261/20 45/104/20 97/262/20

f 97/262/20 45/104/20 79/220/20

v 2.14429 3.098 10.7242
vt -402.771 -438.34
vn 0.244921 0.969543 1.9415e-014
vt -124.818 -473.188
vt -124.818 -438.34
f 98/263/50 97/264/50 79/265/50

v 3.00248 2.88121 10.7242
vt -402.771 -473.188
f 97/264/50 98/263/50 99/266/50

usemtl Color_008
v 1.38416 2.64447 10.7242
vt 544.579 466.658
vn -9.80327e-014 3.75407e-015 1
vt 608.292 475.979
vt 574.506 484.514
f 100/267/51 99/268/51 98/269/51

vt 626.148 446.052
f 100/267/51 95/270/51 99/268/51

v 1.16737 1.78628 10.7242
vt 536.044 432.871
f 101/271/51 95/270/51 100/267/51

vt 617.613 412.265
f 101/271/51 94/272/51 95/270/51

vt 553.9 402.945
f 92/273/51 94/272/51 101/271/51

vt 587.687 394.41
f 94/272/51 92/273/51 93/274/51

usemtl Color_001
vt 124.818 97.0695
vn -0.858756 -0.512385 -7.77156e-014
vt 402.771 62.2212
vt 402.771 97.0695
f 90/275/52 92/276/52 101/277/52

vt 124.818 62.2212
f 92/276/52 90/275/52 91/278/52

vt 402.771 585.824
vn -0.969543 0.244921 -9.26481e-014
vt 124.818 550.976
vt 402.771 550.976
f 100/279/53 90/280/53 101/281/53

v 1.38416 2.64447 3.66416
vt 124.818 585.824
f 90/280/53 100/279/53 102/282/53

vt 402.771 706.769
vn -0.512385 0.858756 -5.15699e-014
vt 124.818 741.617
vt 124.818 706.769
f 100/283/54 79/284/54 102/285/54

vt 402.771 741.617
f 79/284/54 100/283/54 98/286/54

v -0.161803 2.66257 3.66416
vt 483.714 467.37
vt 544.579 466.658
f 103/287/20 102/288/20 79/220/20

f 89/247/20 102/288/20 103/287/20

f 89/247/20 90/246/20 102/288/20

vt -124.818 317.77
vn 0.962109 0.272663 9.1871e-014
vt -402.771 282.922
vt -124.818 282.922
f 103/289/55 85/290/55 89/291/55

v -0.161803 2.66257 10.7242
vt -402.771 317.77
f 85/290/55 103/289/55 104/292/55

vt -124.818 -194.49
vn 0.487512 0.873116 4.31044e-014
v -0.934639 3.09409 10.7242
vt -402.771 -159.642
vt -402.771 -194.49
f 103/293/56 105/294/56 104/295/56

vt -124.818 -159.642
f 105/294/56 103/293/56 80/296/56

f 103/287/20 79/220/20 80/221/20

vt 124.818 568.18
vn -0.272663 0.962109 -3.17246e-014
v -1.78625 2.85274 10.7242
vt 402.771 533.331
vt 402.771 568.18
f 80/297/57 106/298/57 105/299/57

vt 124.818 533.331
f 106/298/57 80/297/57 81/300/57

vt 124.818 584.396
vn -0.873116 0.487512 -8.50431e-014
vt 402.771 619.244
vt 124.818 619.244
f 82/301/58 106/302/58 81/303/58

vt 402.771 584.396
f 106/302/58 82/301/58 84/304/58

usemtl Color_008
vt 483.714 467.37
vt 419.76 474.858
f 84/230/43 104/305/43 106/306/43

f 84/230/43 85/229/43 104/305/43

vt 453.288 484.359
f 106/306/43 104/305/43 105/307/43

usemtl Color_001
vt -402.771 62.2212
vn 0.858756 0.512385 7.95475e-014
vt -124.818 97.0695
vt -402.771 97.0695
f 95/308/59 97/309/59 99/310/59

vt -124.818 62.2212
f 97/309/59 95/308/59 96/311/59

vt 33.195 -123.79
vn -1.40847e-015 -1 -1.31148e-028
vt -198.082 329.602
vt -309.139 218.544
f 18/312/60 38/313/60 17/314/60

v -15.2677 1.27797 -1.86838
vt 144.253 -12.7328
f 38/313/60 18/312/60 107/315/60

vt 64.0607 468.352
vn -1 1.40847e-015 -9.448e-014
vt -92.9986 412.859
vt 64.0607 412.859
f 19/316/61 107/317/61 18/318/61

vt -92.9986 468.352
f 107/317/61 19/316/61 23/319/61

vt -373.128 468.352
vn 9.448e-014 -6.40212e-015 -1
vt 111.006 412.859
vt 111.006 468.352
f 24/320/62 107/321/62 23/322/62

vt -373.128 412.859
f 107/321/62 24/320/62 38/323/62

