# Alias OBJ Model File
# Exported from SketchUp, (c) 2000-2006 Google, Inc.
# File units = meters

mtllib turret.mtl

g Mesh1 Group1 Model

usemtl Color_001
v -33.7204 75.82 -11.6678
vt -1783.77 2412.47
vn -0.784765 0.618023 0.0468094
v -32.0943 75.82 15.5935
vt -708.579 2412.47
v -21.203 90.8309 -1.27056e-013
vt -1295.88 3164.2
f 1/1/1 2/2/1 3/3/1

vt -1783.77 2284.8
vn -0.785993 -0.616455 0.0468827
v -20.7016 60.2796 2.25444
vt -1206.1 1507.77
vt -708.579 2284.8
f 1/4/2 4/5/2 2/6/2

usemtl Color_009
v -16.2324 60.2796 -13.0441
vt -1960.32 1527.37
vn -0.660222 -0.725883 -0.192873
vt -1332.84 1527.37
vt -1715.25 2416.89
f 5/7/3 4/8/3 1/9/3

vt -1960.32 2333.04
vn -0.928892 0.252036 -0.271361
v -25.8921 26.8044 -11.0693
vt -1779.05 971.162
vt -1332.84 2333.04
f 5/10/4 6/11/4 4/12/4

usemtl Color_001
vt -1655.16 2222.23
vn -0.595062 0.124877 -0.793919
v -3.35974 26.8044 -27.9579
vt -2412.84 893.91
vt -1304.21 893.91
f 5/13/5 7/14/5 6/15/5

usemtl Color_009
v -2.25444 60.2796 -20.7016
vt -2115.89 2065.41
vn -0.470577 0.201736 -0.858988
vt -2214.98 719.823
vt -1488.41 2065.41
f 8/16/6 7/17/6 5/18/6

usemtl Color_001
vt -296.832 1882.96
vn 0.386448 0.183182 -0.903937
v 22.5323 26.8044 -16.8885
vt -1253.14 542.356
vt -144.519 542.356
f 8/19/7 9/20/7 7/21/7

usemtl Color_009
v 13.0441 60.2796 -16.2324
vt -1215.78 2126.66
vn 0.279068 0.0978244 -0.955275
vt -1567.1 802.387
vt -588.302 2126.66
f 10/22/8 9/23/8 8/24/8

vt 683.391 297.45
vn 0.849211 0.24982 -0.465221
vt 840.209 1658.52
v 20.7016 60.2796 -2.25444
vt 212.729 1658.52
f 9/25/9 10/26/9 11/27/9

v 32.0943 75.82 -15.5935
vt 457.806 4379.82
vn 0.60323 -0.725883 -0.330465
vt 212.729 3490.3
vt 840.209 3490.3
f 12/28/10 11/29/10 10/30/10

usemtl Color_001
vt 1783.77 4016.14
vn 0.785993 -0.616455 -0.0468827
v 33.7204 75.82 11.6678
vt 708.579 4016.14
vt 1286.25 3239.1
f 12/31/11 13/32/11 11/33/11

vt 1783.77 644.566
vn 0.779743 0.62437 -0.0465099
v 21.203 90.8309 3.32495
vt 1065.8 1401.14
vt 708.579 644.566
f 12/34/12 14/35/12 13/36/12

vt 802.123 -413.269
vn 0.605439 0.755349 -0.250781
v 16.565 90.8309 -7.87213
vt 755.24 488.545
vt 278.089 488.545
f 12/37/13 15/38/13 14/39/13

vt -2279.97 3114.11
vn -0.202346 0.274255 -0.940128
vt -2941.64 2499.57
v 11.6678 75.82 -11.1971
vt -2119.03 2499.57
f 15/40/14 12/41/14 16/42/14

vt 2591.13 1941.49
vn 0 1 -0
v 11.6678 75.82 -33.7204
vt 1786.94 2655.15
vt 1786.94 1768.41
f 12/43/15 17/44/15 16/45/15

vt -649.383 4305.79
vn 0.52263 -0.616455 -0.588932
vt -71.7164 3528.76
vt 425.806 4305.79
f 12/46/16 10/47/16 17/48/16

usemtl Color_009
vt -1215.78 3377.37
vn 0.192873 -0.725883 -0.660222
vt -588.302 3377.37
vt -970.706 4266.89
f 10/49/17 8/50/17 17/51/17

usemtl Color_001
vt -1941.86 3918.68
vn -0.0468827 -0.616455 -0.785993
vt -1364.19 3141.64
v -15.5935 75.82 -32.0943
vt -866.672 3918.68
f 17/52/18 8/53/18 18/54/18

usemtl Color_009
vt -2115.89 2564.3
vn -0.330465 -0.725883 -0.60323
vt -1488.41 2564.3
vt -1870.81 3453.82
f 8/55/19 5/56/19 18/57/19

usemtl Color_001
vt -2411.74 3081.56
vn -0.588932 -0.616455 -0.52263
vt -1834.07 2304.52
vt -1336.55 3081.56
f 18/58/20 5/59/20 1/60/20

vt 713.657 2591.13
vt 0 1786.94
v -21.203 75.82 -11.6678
vt 492.812 1786.94
f 18/61/15 1/62/15 19/63/15

vt -492.812 2008.67
vn 1.06524e-016 0.613702 -0.789538
vt -492.812 1260.15
vt 2.41093e-013 1260.15
f 3/64/21 19/65/21 1/66/21

v -14.9928 90.8309 -11.6678
vt -1923.84 3294.28
vn -0.829183 0.343045 -0.441334
vt -1808.96 2665.12
vt -1403.46 3294.28
f 20/67/22 19/68/22 3/69/22

vt -711.644 3586.6
vn 0.0143195 -0.00592419 -0.99988
v -14.9928 75.82 -11.5789
vt -711.695 2995.61
vt -467.173 2995.61
f 20/70/23 21/71/23 19/72/23

vt -758.926 3586.49
vn -0.0121276 -0.00592436 -0.999909
v -10.1926 78.4657 -11.6528
vt -947.889 3099.66
vt -758.883 2995.5
f 20/73/24 22/74/24 21/75/24

vt -731.705 3576.02
vn 0.0031336 2.61349e-019 -0.999995
v -10.1926 88.2921 -11.6528
vt -920.691 3476.07
vt -920.691 3089.2
f 20/76/25 23/77/25 22/78/25

v 11.6678 90.8309 -11.6678
vt -1786.94 3586.54
vn 1.43638e-014 -0.0059248 -0.999982
vt -926.293 3486.59
vt -737.308 3586.54
f 24/79/26 23/80/26 20/81/26

vt -1754.35 3820.32
vn 0.0178405 -0.159466 -0.987042
v 5.70418 88.2921 -11.3655
vt -1519.82 3719.07
vt -893.859 3719.07
f 24/82/27 25/83/27 23/84/27

vt -1875.13 3576.02
vn -0.0506373 5.4114e-018 -0.998717
v 5.70418 78.4657 -11.3655
vt -1640.04 3089.2
vt -1640.04 3476.07
f 24/85/28 26/86/28 25/87/28

vt -1761.17 3631.06
vn 0.0143127 -0.031342 -0.999406
vt -1761.43 3039.79
vt -1526.57 3144.01
f 24/88/29 16/89/29 26/90/29

v 14.9928 90.8309 -11.6678
vt -1917.84 3630.27
vn 6.95819e-015 -0.0313452 -0.999509
vt -1786.94 3039
vt -1786.94 3630.27
f 27/91/30 16/92/30 24/93/30

vt 916.99 4014.89
vn 0.902933 -0.211731 -0.374007
vt 755.24 4014.89
vt 949.962 3410.2
f 27/94/31 15/95/31 16/96/31

vt 1917.84 1786.94
vn -1.87644e-015 1 -6.15888e-016
v 14.9928 90.8309 18.3177
vt 1917.84 606.405
vt 1979.74 1637.5
f 27/97/32 28/98/32 15/99/32

vt 1786.94 1786.94
f 24/100/32 28/98/32 27/97/32

v 0 90.8309 24.528
vt 1327.58 361.908
f 24/100/32 29/101/32 28/98/32

vt 737.308 1786.94
f 20/102/32 29/101/32 24/100/32

v -14.9928 90.8309 18.3177
vt 737.308 606.405
f 29/101/32 20/102/32 30/103/32

vt 737.308 1786.94
vn -2.58366e-015 1 -3.85205e-016
vt 492.812 1327.58
vt 737.308 606.405
f 20/104/33 3/105/33 30/106/33

vt -337.565 3140.47
vn -0.662777 0.714309 0.2247
vt -1099.05 3140.47
vt -655.316 2296.01
f 30/107/34 3/108/34 2/109/34

vt 148.972 3535.79
vn -0.564008 0.527219 0.635559
vt -425.806 2840.3
v -11.6678 75.82 33.7204
vt 649.383 2840.3
f 30/110/35 2/111/35 31/112/35

vt 649.383 1995.14
vn -0.52263 -0.616455 0.588932
vt -425.806 1995.14
v -13.0441 60.2796 16.2324
vt 151.86 1218.11
f 31/113/36 2/114/36 32/115/36

usemtl Color_009
vt -212.729 873.996
vn -0.60323 -0.725883 0.330465
vt -595.133 1763.52
vt -840.209 873.996
f 32/116/37 2/117/37 4/118/37

vt -840.209 2558.95
vn -0.849211 0.24982 0.465221
v -22.5323 26.8044 16.8885
vt -369.548 1197.88
vt -212.729 2558.95
f 4/119/38 33/120/38 32/121/38

usemtl Color_001
vt -1714.01 1104.03
vn -0.987278 0.10586 0.118643
vt -605.384 1104.03
vt -1168.81 2429.39
f 6/122/39 33/123/39 4/124/39

vt -1714.01 1028.53
vn -0.991647 -0.0493451 0.119168
v -21.5855 0 13.6681
vt -726.822 -28.0542
vt -605.384 1028.53
f 6/125/40 34/126/40 33/127/40

v -22.6297 0 -11.8596
vt -1775.15 -62.1218
vn -0.991713 -0.121899 0.0405622
vt -769.279 -62.1218
vt -1749.31 1001.1
f 35/128/41 34/129/41 6/130/41

vt -2412.84 1114.51
vn -0.599026 -0.0493451 -0.799208
vt -1425.65 57.933
vt -1304.21 1114.51
f 7/131/42 35/132/42 6/133/42

vt -2308.94 1219.56
vn -0.530985 -0.121899 -0.838568
v -1.04411 0 -25.5277
vt -2334.78 156.338
vt -1328.91 156.338
f 7/134/43 36/135/43 35/136/43

vt 68.4619 1163.13
vn 0.463816 -0.0401705 -0.88502
v 21.5855 0 -13.6681
vt -1062.57 106.984
vt -56.6998 106.984
f 7/137/44 37/138/44 36/139/44

vt -1253.14 1380.76
vn 0.390095 -0.12341 -0.912467
vt -1268.71 317.34
vt -144.519 1380.76
f 9/140/45 37/141/45 7/142/45

vt 1714.01 1174.24
vn 0.991647 -0.0493451 -0.119168
v 25.8921 26.8044 11.0693
vt 605.384 1174.24
vt 1592.57 117.661
f 9/143/46 38/144/46 37/145/46

vt 1714.01 791.426
vn 0.987278 0.10586 -0.118643
vt 1150.58 2116.79
vt 605.384 791.426
f 9/146/47 11/147/47 38/148/47

usemtl Color_009
vt 1960.32 1878.35
vn 0.928892 0.252036 0.271361
v 16.2324 60.2796 13.0441
vt 1332.84 1878.35
vt 1514.11 516.467
f 11/149/48 39/150/48 38/151/48

vt 1577.92 3726.44
vn 0.660222 -0.725883 0.192873
vt 1332.84 2836.92
vt 1960.32 2836.92
f 13/152/49 39/153/49 11/154/49

usemtl Color_001
vt 2411.74 3219.38
vn 0.588932 -0.616455 0.52263
v 15.5935 75.82 32.0943
vt 1336.55 3219.38
vt 1914.22 2442.35
f 13/155/50 40/156/50 39/157/50

vt 2411.74 1756.1
vn 0.630236 0.53852 0.559284
vt 1726.53 2457.47
vt 1336.55 1756.1
f 13/158/51 28/159/51 40/160/51

vt 1818.21 641.85
vn 0.658823 0.701057 0.272893
vt 1933.07 1470.59
vt 1294.17 1470.59
f 13/161/52 14/162/52 28/163/52

vt 2162.34 1196.67
f 15/99/32 28/98/32 14/164/32

vt 1365.02 2593.47
vn 0.289682 0.653443 0.699354
vt 1818.21 1812.76
vt 2003.92 2593.47
f 29/165/53 40/166/53 28/167/53

vt 1346.77 3252.24
vn 0.0518394 0.491927 0.869092
vt 866.672 2573.45
vt 1941.86 2573.45
f 29/168/54 31/169/54 40/170/54

vt 1088.02 3257.42
vn -0.289682 0.653443 0.699354
vt 449.123 3257.42
vt 802.123 2476.71
f 29/171/55 30/172/55 31/173/55

vt 866.672 2382.26
vn 0.0468827 -0.616455 0.785993
v 2.25444 60.2796 20.7016
vt 1444.34 1605.22
vt 1941.86 2382.26
f 31/174/56 41/175/56 40/176/56

usemtl Color_009
vt 1215.78 986.92
vn -0.192873 -0.725883 0.660222
vt 833.379 1876.44
vt 588.302 986.92
f 41/177/57 31/178/57 32/179/57

vt 588.302 2448.81
vn -0.279068 0.0978244 0.955275
vt 236.981 1124.54
vt 1215.78 2448.81
f 32/180/58 33/181/58 41/182/58

usemtl Color_001
vt 1100.83 2521.37
vn -0.386448 0.183182 0.903937
vt 144.519 1180.77
v 3.35974 26.8044 27.9579
vt 1253.14 1180.77
f 41/183/59 33/184/59 42/185/59

vt 144.519 1015.4
vn -0.392621 -0.0493451 0.918376
v 1.04411 0 25.5277
vt 1131.7 -41.184
vt 1253.14 1015.4
f 33/186/60 43/187/60 42/188/60

vt 82.5387 950.949
vn -0.460729 -0.121899 0.87913
vt 56.6998 -112.272
vt 1062.57 -112.272
f 33/189/61 34/190/61 43/191/61

vt 1354.75 1119.26
vn 0.530985 -0.121899 0.838568
vt 1328.91 56.0369
v 22.6297 0 11.8596
vt 2334.78 56.0369
f 42/192/62 43/193/62 44/194/62

vt 1304.21 1088.25
vn 0.599026 -0.0493451 0.799208
vt 2291.4 31.6735
vt 2412.84 1088.25
f 42/195/63 44/196/63 38/197/63

vt 1775.15 274.496
vn 0.991713 -0.121899 -0.0405622
vt 795.118 1337.72
vt 769.279 274.496
f 37/198/64 38/199/64 44/200/64

vt 2061.89 2288.68
vn 0.595062 0.124877 0.793919
vt 1304.21 960.365
vt 2412.84 960.365
f 39/201/65 42/202/65 38/203/65

usemtl Color_009
vt 1488.41 2277.82
vn 0.470577 0.201736 0.858988
vt 1389.32 932.239
vt 2115.89 2277.82
f 41/204/66 42/205/66 39/206/66

vt 2115.89 1799.99
vn 0.330465 -0.725883 0.60323
vt 1733.49 2689.51
vt 1488.41 1799.99
f 39/207/67 40/208/67 41/209/67

usemtl Color_001
vt -1519.82 3129.66
vn 0.018067 -0.0228904 -0.999575
vt -1754.69 3025.47
vt -893.859 3129.66
f 26/210/68 16/211/68 22/212/68

vt -900.618 3181.59
vn 0.014299 -0.0538295 -0.998448
vt -1761.43 3077.27
vt -711.695 3077.27
f 22/213/69 16/214/69 21/215/69

vt 737.308 1783.44
f 17/44/15 21/216/15 16/45/15

f 18/61/15 21/216/15 17/44/15

f 21/216/15 18/61/15 19/63/15

usemtl Color_000
v -9.21397 78.4657 -65.7949
vt -964.821 3917.93
vn 0 -1 -0
vt -1552.15 1775.03
vt -926.293 1786.35
f 45/217/70 26/218/70 22/219/70

v 6.68278 78.4657 -65.5076
vt -1590.68 3906.62
f 26/218/70 45/217/70 46/220/70

vt -893.859 3089.2
vn 0.0180718 0 -0.999837
v -7.07562 80.6044 -65.7563
vt -978.06 3173.4
vt -1519.82 3089.2
f 45/221/71 47/222/71 46/223/71

v -9.21397 88.2921 -65.7949
vt -893.859 3476.07
f 47/222/71 45/221/71 48/224/71

vt -1802.79 3089.2
vn -0.999837 0 -0.0180718
vt -3934.72 3476.07
vt -3934.72 3089.2
f 22/225/72 48/226/72 45/227/72

vt -1802.79 3476.07
f 48/226/72 22/225/72 23/228/72

vt 1552.15 1775.03
vt 964.821 3917.93
vt 926.293 1786.35
f 25/229/15 48/230/15 23/231/15

v 6.68278 88.2921 -65.5076
vt 1590.68 3906.62
f 48/230/15 25/229/15 49/232/15

vt 1802.79 3476.07
vn 0.999837 0 0.0180718
vt 3934.72 3089.2
vt 3934.72 3476.07
f 25/233/73 46/234/73 49/235/73

vt 1802.79 3089.2
f 46/234/73 25/233/73 26/236/73

v 4.54443 80.6044 -65.5463
vt -1435.62 3173.4
vt -1519.82 3476.07
f 46/223/71 50/237/71 49/238/71

f 50/237/71 46/223/71 47/222/71

usemtl Color_001
vt 1049.01 3916.41
vn 2.48948e-020 1 -1.37733e-018
v 4.23441 80.6044 -48.3941
vt 1494.28 3232.85
vt 1506.49 3908.14
f 47/239/74 51/240/74 50/241/74

v -7.38564 80.6044 -48.6041
vt 1036.8 3241.12
f 51/240/74 47/239/74 52/242/74

vt 3934.72 3173.4
vn 0.999837 0 0.0180718
v -7.38564 86.1534 -48.6041
vt 3259.33 3391.87
vt 3259.33 3173.4
f 47/243/75 53/244/75 52/245/75

v -7.07562 86.1534 -65.7563
vt 3934.72 3391.87
f 53/244/75 47/243/75 54/246/75

usemtl Color_000
vt -978.06 3391.87
f 47/222/71 48/224/71 54/247/71

v 4.54443 86.1534 -65.5463
vt -1435.62 3391.87
f 54/247/71 48/224/71 55/248/71

f 49/238/71 55/248/71 48/224/71

f 49/238/71 50/237/71 55/248/71

usemtl Color_001
vt -3259.33 3173.4
vn -0.999837 1.30078e-016 -0.0180718
vt -3934.72 3391.87
vt -3934.72 3173.4
f 51/249/76 55/250/76 50/251/76

v 4.23441 86.1534 -48.3941
vt -3259.33 3391.87
f 55/250/76 51/249/76 56/252/76

vt -1435.62 3173.4
vn 0.0180718 -1.37755e-018 -0.999837
vt -978.06 3391.87
vt -1435.62 3391.87
f 51/253/77 53/254/77 56/255/77

vt -978.06 3173.4
f 53/254/77 51/253/77 52/256/77

vt -1049.01 3916.41
vn -2.48948e-020 -1 1.37733e-018
vt -1494.28 3232.85
vt -1036.8 3241.12
f 54/257/78 56/258/78 53/259/78

vt -1506.49 3908.14
f 56/258/78 54/257/78 55/260/78

