# Alias OBJ Model File
# Exported from SketchUp, (c) 2000-2006 Google, Inc.
# File units = meters

mtllib tutotarget.mtl

g Mesh1 Model

usemtl Color_000
v -42.4264 -42.4264 -10
vt 1670.33 -1670.33
vn 0 0 -1
v -30 -30 -10
vt 1181.1 -1181.1
v 0 -42.4264 -10
vt 0 -1670.33
f 1/1/1 2/2/1 3/3/1

v -60 0 -10
vt 2362.2 0
f 2/2/1 1/1/1 4/4/1

usemtl Color_A01
v -42.4264 -42.4264 7.21911e-015
vt 3.78516e-013 -903.977
vn -0.92388 -0.382683 -5.21576e-017
vt -393.701 903.977
vt -393.701 -903.977
f 5/5/2 4/6/2 1/7/2

v -60 0 10
vt 393.701 903.977
f 4/6/2 5/5/2 6/8/2

vt -2044.49 436.099
vn -0.349714 -0.349714 0.869138
vt -1549.59 -1346.81
v -30 -30 10
vt -948.766 -824.608
f 6/9/3 5/10/3 7/11/3

vt -948.766 -824.608
vn -0.349714 -0.349714 0.869138
v 0 -60 10
vt 146.962 -2085.32
f 7/12/4 5/10/4 8/13/4

vt 5.65603e-014 903.977
vn -0.382683 -0.92388 5.21576e-017
v 0 -60 -10
vt -393.701 -903.977
vt 393.701 -903.977
f 5/14/5 9/15/5 8/16/5

vt -393.701 903.977
f 9/15/5 5/14/5 1/17/5

usemtl Color_000
v 42.4264 -42.4264 -10
vt -1670.33 -1670.33
vt 0 -2362.2
f 1/1/1 10/18/1 9/19/1

f 10/18/1 1/1/1 3/3/1

v 30 -30 -10
vt -1181.1 -1181.1
f 10/18/1 3/3/1 11/20/1

vt -393.701 -639.208
vn -0.382683 0.92388 -0
v 30 -30 10
vt 393.701 639.208
vt -393.701 639.208
f 3/21/6 12/22/6 11/23/6

v 0 -42.4264 10
vt 393.701 -639.208
f 12/22/6 3/21/6 13/24/6

vn 0.382683 0.92388 -0
f 2/22/7 13/21/7 3/24/7

f 13/21/7 2/22/7 7/23/7

vt 393.701 -639.208
vn 0.92388 0.382683 -0
v -42.4264 0 10
vt -393.701 639.208
vt -393.701 -639.208
f 2/25/8 14/26/8 7/27/8

v -42.4264 0 -10
vt 393.701 639.208
f 14/26/8 2/25/8 15/28/8

vt 1670.33 0
f 2/2/1 4/4/1 15/29/1

v -42.4264 42.4264 -10
vt 1670.33 1670.33
f 15/29/1 4/4/1 16/30/1

usemtl Color_A01
vt -393.701 -903.977
vn -0.92388 0.382683 5.21576e-017
v -42.4264 42.4264 -0
vt -9.42985e-014 903.977
vt -393.701 903.977
f 4/31/9 17/32/9 16/33/9

vt 393.701 -903.977
f 17/32/9 4/31/9 6/34/9

vt -1549.59 1346.81
vn -0.349714 0.349714 0.869138
vt -2044.49 -436.099
v -30 30 10
vt -948.766 824.608
f 17/35/10 6/36/10 18/37/10

usemtl Color_000
vt -1181.1 1181.1
vn 0 0 1
vt -2362.2 0
vt -1670.33 0
f 18/38/11 6/39/11 14/40/11

f 6/39/11 7/20/11 14/40/11

v -8.7868 21.2132 10
vt -345.937 835.165
f 14/40/11 19/41/11 18/38/11

v -21.2132 -8.7868 10
vt -835.165 -345.937
f 19/41/11 14/40/11 20/42/11

usemtl Color_A01
vt 393.701 1543.18
vn -0.382683 -0.92388 -0
v -21.2132 -8.7868 -10
vt -393.701 639.208
vt 393.701 639.208
f 14/43/12 21/44/12 20/45/12

vt -393.701 1543.18
f 21/44/12 14/43/12 15/46/12

usemtl Color_000
v 42.4264 0 -10
vt 835.165 -345.937
f 22/40/1 21/47/1 15/29/1

v 8.7868 -21.2132 -10
vt -345.937 -835.165
f 22/40/1 23/48/1 21/47/1

f 23/48/1 22/40/1 11/20/1

v 60 0 -10
f 24/39/1 11/20/1 22/40/1

f 10/18/1 11/20/1 24/39/1

usemtl Color_A01
vt 393.701 903.977
vn 0.92388 -0.382683 -5.21576e-017
v 42.4264 -42.4264 -0
vt -9.42985e-014 -903.977
vt 393.701 -903.977
f 24/49/13 25/50/13 10/51/13

v 60 0 10
vt -393.701 903.977
f 25/50/13 24/49/13 26/52/13

vt 393.701 -903.977
vn 0.92388 0.382683 5.21576e-017
v 42.4264 42.4264 -0
vt 9.42985e-014 903.977
vt -393.701 -903.977
f 24/53/14 27/54/14 26/55/14

v 42.4264 42.4264 -10
vt 393.701 903.977
f 27/54/14 24/53/14 28/56/14

usemtl Color_000
v 30 30 -10
vt -1670.33 1670.33
f 24/39/1 29/38/1 28/57/1

f 24/39/1 22/40/1 29/38/1

v 42.4264 0 10
vt 393.701 -639.208
vn -0.92388 -0.382683 -0
vt -393.701 639.208
vt -393.701 -639.208
f 30/58/15 29/59/15 22/60/15

v 30 30 10
vt 393.701 639.208
f 29/59/15 30/58/15 31/61/15

vt 1181.1 1181.1
f 31/62/11 30/29/11 26/4/11

f 30/29/11 12/2/11 26/4/11

v 8.7868 -21.2132 10
vt 345.937 -835.165
f 30/29/11 32/63/11 12/2/11

v 21.2132 8.7868 10
vt 835.165 345.937
f 32/63/11 30/29/11 33/64/11

usemtl Color_A01
vt -393.701 -1543.18
vn 0.382683 0.92388 -0
v 21.2132 8.7868 -10
vt 393.701 -639.208
vt -393.701 -639.208
f 30/65/16 34/66/16 33/67/16

vt 393.701 -1543.18
f 34/66/16 30/65/16 22/68/16

usemtl Color_000
v -30 30 -10
vt -835.165 345.937
f 22/40/1 35/62/1 34/69/1

f 22/40/1 15/29/1 35/62/1

f 15/29/1 16/30/1 35/62/1

v 0 42.4264 -10
vt 0 1670.33
f 35/62/1 16/30/1 36/70/1

v 0 60 -10
vt 0 2362.2
f 36/70/1 16/30/1 37/71/1

usemtl Color_A01
vt -393.701 -903.977
vn -0.382683 0.92388 5.21576e-017
v 0 60 10
vt 393.701 903.977
vt -393.701 903.977
f 16/72/17 38/73/17 37/74/17

vt -2.27657e-013 -903.977
f 38/73/17 16/72/17 17/75/17

vt 146.962 2085.32
vn -0.349714 0.349714 0.869138
vt -948.766 824.608
f 38/76/18 17/35/18 18/77/18

usemtl Color_000
v 0 42.4264 10
f 38/71/11 18/38/11 39/70/11

vt -393.701 -639.208
vn 0.382683 -0.92388 -0
f 18/78/19 36/45/19 39/44/19

vt 393.701 -639.208
f 36/45/19 18/78/19 35/79/19

usemtl Color_A01
vt -393.701 639.208
vn 0.382683 0.92388 -0
f 19/80/20 35/43/20 18/46/20

v -8.7868 21.2132 -10
vt 393.701 639.208
f 35/43/20 19/80/20 40/81/20

vn -0.92388 0.382683 -0
f 19/81/21 36/46/21 40/80/21

f 36/46/21 19/81/21 39/43/21

f 19/41/11 31/62/11 39/70/11

f 31/62/11 19/41/11 33/64/11

usemtl Color_000
vt -246.389 954.708
vn -0.20069 -0.484508 0.851455
v 2.88763e-015 0 -0
vt 1.10654e-013 -1.26367e-014
vt 903.212 395.453
f 19/82/22 41/83/22 33/84/22

usemtl Color_A01
vt -495.379 852.51
vn 0.484508 -0.20069 0.851455
vt -920.586 -353.121
vt 9.8809e-014 1.1284e-014
f 19/85/23 20/86/23 41/87/23

usemtl Color_000
vt 1.10654e-013 -1.26367e-014
vn 0.20069 0.484508 0.851455
vt -903.212 -395.453
vt 246.389 -954.708
f 41/88/24 20/89/24 32/90/24

usemtl Color_A01
f 7/20/11 32/63/11 20/42/11

f 32/63/11 7/20/11 13/3/11

usemtl Color_000
f 7/20/11 8/19/11 13/3/11

f 12/2/11 13/3/11 8/19/11

usemtl Color_A01
vt 948.766 -824.608
vn 0.349714 -0.349714 0.869138
vt -146.962 -2085.32
vt 1549.59 -1346.81
f 12/91/25 8/92/25 25/93/25

vn 0.382683 -0.92388 5.21576e-017
vt 393.701 903.977
vt 2.27657e-013 903.977
f 8/15/26 10/94/26 25/95/26

f 10/94/26 8/15/26 9/16/26

vt 2044.49 436.099
vn 0.349714 -0.349714 0.869138
vt 948.766 -824.608
f 26/96/27 12/97/27 25/93/27

vn 0.92388 -0.382683 1.11612e-017
f 3/68/28 32/67/28 13/65/28

f 32/67/28 3/68/28 23/58/28

usemtl Color_000
f 2/2/1 23/48/1 3/3/1

f 23/48/1 2/2/1 21/47/1

usemtl Color_A01
vn -0.92388 0.382683 -0
f 7/68/29 21/78/29 2/65/29

f 21/78/29 7/68/29 20/79/29

vt -393.701 -639.208
vn -0.382683 -0.92388 -1.66033e-016
vt 393.701 -1543.18
vt 393.701 -639.208
f 23/98/30 12/99/30 32/100/30

vt -393.701 -1543.18
f 12/99/30 23/98/30 11/101/30

vt 920.586 353.121
vn -0.484508 0.20069 0.851455
vt 495.379 -852.51
f 33/102/31 41/87/31 32/103/31

vn 0.92388 -0.382683 -0
f 34/81/32 31/46/32 33/80/32

f 31/46/32 34/81/32 29/43/32

usemtl Color_000
vt 345.937 835.165
f 40/104/1 29/38/1 34/69/1

f 29/38/1 40/104/1 36/70/1

f 28/57/1 29/38/1 36/70/1

vt -393.701 -639.208
vn -0.382683 -0.92388 -0
f 29/105/33 39/81/33 36/80/33

vt 393.701 -639.208
f 39/81/33 29/105/33 31/106/33

f 38/71/11 39/70/11 31/62/11

usemtl Color_A01
vt -146.962 2085.32
vn 0.349714 0.349714 0.869138
vt 948.766 824.608
vt 1549.59 1346.81
f 38/107/34 31/108/34 27/109/34

vn 0.349714 0.349714 0.869138
vt 948.766 824.608
vt 2044.49 -436.099
f 27/109/35 31/110/35 26/111/35

vt 2.27657e-013 -903.977
vn 0.382683 0.92388 5.21576e-017
f 27/112/36 37/73/36 38/74/36

vt 393.701 -903.977
f 37/73/36 27/112/36 28/113/36

usemtl Color_000
f 36/70/1 37/71/1 28/57/1

f 34/69/1 35/62/1 40/104/1

