# Alias OBJ Model File
# Exported from SketchUp, (c) 2000-2006 Google, Inc.
# File units = meters

mtllib deco03.mtl

g Mesh1 Group1 Model

usemtl FrontColor
v 66.705 0 -23.6574
vt 3433.39 4.54747e-013
vn 1 8.70777e-017 -0
v 66.705 4.13 63.5507
vt 0 162.598
v 66.705 0 63.5507
vt 0 4.54747e-013
f 1/1/1 2/2/1 3/3/1

v 66.705 4.13 -23.6574
vt 3433.39 162.598
f 2/2/1 1/1/1 4/4/1

vt -5222.32 1.36424e-012
vn 2.30666e-032 -1.32448e-016 -1
v -65.9419 4.13 -23.6574
vt -4.54747e-013 162.598
vt -5222.32 162.598
f 1/5/2 5/6/2 4/7/2

v -65.9419 -2.31012e-014 -23.6574
vt -4.54747e-013 4.54747e-013
f 5/6/2 1/5/2 6/8/2

vt -5222.32 -6.02306e-029
vn 8.70777e-017 -1 1.32448e-016
vt -4.54747e-013 3433.39
vt -5222.32 3433.39
f 3/9/3 6/10/3 1/11/3

v -65.9419 0 63.5507
vt -7.91967e-029 -1.20461e-028
f 6/10/3 3/9/3 7/12/3

vt 5222.32 162.598
vn 0 1.32448e-016 1
vt 0 9.09495e-013
vt 5222.32 9.09495e-013
f 2/13/4 7/14/4 3/15/4

v -65.9419 4.13 63.5507
vt 0 162.598
f 7/14/4 2/13/4 8/16/4

usemtl Color_001
v -53.826 4.13 51.4349
vt 477.002 477.002
vn -8.70777e-017 1 -1.32448e-016
vt 1.41587e-014 -2.15359e-014
vt 5222.32 -2.15359e-014
f 9/17/5 8/18/5 2/19/5

vt 4.68906e-013 3433.39
f 8/18/5 9/17/5 5/20/5

v -53.826 4.13 -11.5416
vt 477.002 2956.39
f 10/21/5 5/20/5 9/17/5

vt 5222.32 3433.39
f 5/20/5 10/21/5 4/22/5

v 54.5891 4.13 -11.5416
vt 4745.31 2956.39
f 4/22/5 10/21/5 11/23/5

vt 477.002 162.598
vn -2.48075e-032 1.4329e-016 1
v 54.5891 1.774 -11.5416
vt 4745.31 69.8425
vt 4745.31 162.598
f 10/24/6 12/25/6 11/26/6

v -53.826 1.774 -11.5416
vt 477.002 69.8425
f 12/25/6 10/24/6 13/27/6

vt 2956.39 162.598
vn 1 8.98934e-017 1.83411e-016
v -53.826 1.774 51.4349
vt 477.002 69.8425
vt 2956.39 69.8425
f 10/28/7 14/29/7 13/30/7

vt 477.002 162.598
f 14/29/7 10/28/7 9/31/7

vt -477.002 162.598
vn 9.54135e-034 -1.4329e-016 -1
v 54.5891 1.774 51.4349
vt -4745.31 69.8425
vt -477.002 69.8425
f 9/32/8 15/33/8 14/34/8

v 54.5891 4.13 51.4349
vt -4745.31 162.598
f 15/33/8 9/32/8 16/35/8

vt 4745.31 477.002
f 9/17/5 2/19/5 16/36/5

f 16/36/5 2/19/5 11/23/5

f 4/22/5 11/23/5 2/19/5

vt -2956.39 162.598
vn -1 -8.98934e-017 -0
vt -477.002 69.8425
vt -477.002 162.598
f 11/37/9 15/38/9 16/39/9

vt -2956.39 69.8425
f 15/38/9 11/37/9 12/40/9

usemtl Water_Pool
vt -33.1115 7.09987
vn -8.98934e-017 1 -1.4329e-016
vt 33.5809 -31.6405
vt 33.5809 7.09987
f 13/41/10 15/42/10 12/43/10

vt -33.1115 -31.6405
f 15/42/10 13/41/10 14/44/10

usemtl FrontColor
vt -3433.39 162.598
vn -1 -8.70777e-017 -1.32448e-016
f 5/45/11 7/14/11 8/16/11

vt -3433.39 -5.60519e-045
f 7/14/11 5/45/11 6/46/11

