# Alias OBJ Model File
# Exported from SketchUp, (c) 2000-2006 Google, Inc.
# File units = meters

mtllib deco00.mtl

g Mesh1 Group2 Group1 Model

usemtl Vegetation_Blur3
v 14.5886 18.6194 -6.76666
vt -9.43734 -380.293
vn -0.461562 0.384503 -0.799449
v 14.9362 16.8937 -7.79735
vt -11.5507 -385.133
v 13.5222 16.8937 -6.98097
vt -7.32393 -385.133
f 1/1/1 2/2/1 3/3/1

vt 1145.94 49.3935
vn 0.782845 0.427634 -0.451976
vt 1144.08 54.3356
v 15.655 16.8937 -6.55236
vt 1142.22 49.3935
f 2/4/2 1/5/2 4/6/2

vt 9.43734 499.512
vn 0.461562 0.384503 0.799449
v 14.241 16.8937 -5.73597
vt 7.32393 494.672
vt 11.5507 494.672
f 1/7/3 5/8/3 4/9/3

vt -1145.94 57.465
vn -0.782845 0.427634 0.451976
vt -1142.22 57.465
vt -1144.08 62.4071
f 3/10/4 5/11/4 1/12/4

v 7.64461 5.19867 -5.86009
vt -1151.04 23.8408
vn -0.779778 0.435042 0.450205
vt -1142.22 57.465
vt -1145.94 57.465
f 6/13/5 5/14/5 3/15/5

v 10.1604 5.19867 -1.5026
vt -1138.01 23.8408
f 5/14/5 6/13/5 7/16/5

vt -1142.22 57.465
vn -0.347738 0.424029 0.836228
vt -1138.01 23.8408
v 15.8074 5.19867 0.845638
vt -1122.84 28.3519
f 5/17/6 7/18/6 8/19/6

vt -1122.84 28.3519
vn 0.437304 0.484829 0.757434
vt -1139.07 60.2871
vt -1142.22 57.465
f 8/20/7 4/21/7 5/22/7

v 20.7564 5.19867 -2.01171
vt -1111.82 38.2295
f 4/21/7 8/20/7 9/23/7

vt -1139.07 60.2871
vn 0.904072 0.421586 0.0701297
vt -1111.82 38.2295
v 21.2119 5.19867 -7.88318
vt -1106.3 52.4412
f 4/24/8 9/25/8 10/26/8

v 18.6961 5.19867 -12.2407
vt -1104.88 65.3883
vn 0.78426 0.424163 -0.452793
vt -1139.07 60.2871
vt -1106.3 52.4412
f 11/27/9 4/28/9 10/29/9

vt -1138.67 63.9863
f 4/28/9 11/27/9 2/30/9

v 13.623 5.19867 -14.3671
vt -1107.37 79.4085
vn 0.349228 0.428817 -0.83316
vt -1138.67 63.9863
vt -1104.88 65.3883
f 12/31/10 2/32/10 11/33/10

vt -1107.37 79.4085
vn -0.439468 0.476941 -0.76118
vt -1141.11 67.4317
vt -1138.67 63.9863
f 12/34/11 3/35/11 2/36/11

v 8.67398 5.19867 -11.5097
vt -1115.94 91.4673
f 3/35/11 12/34/11 13/37/11

vt -1115.94 91.4673
vn -0.887872 0.430714 -0.161771
vt -1128.7 99.0925
vt -1141.11 67.4317
f 13/38/12 6/39/12 3/40/12

g Mesh2 Group2 Group1 Model

v 14.9362 0 -7.79735
vt -11.5507 1145.94
vn 0 -1 -0
v 14.241 0 -5.73597
vt -7.32393 1142.22
v 13.5222 0 -6.98097
vt -7.32393 1145.94
f 14/41/13 15/42/13 16/43/13

v 15.655 0 -6.55236
vt -11.5507 1142.22
f 15/42/13 14/41/13 17/44/13

usemtl Wood_Lumber_ButtJoined
vt 687.565 19.6471
vn 0.866025 0 -0.5
v 15.655 10.3395 -6.55236
vt 685.332 51.7665
vt 685.332 19.6471
f 14/45/14 18/46/14 17/47/14

v 14.9362 10.3395 -7.79735
vt 687.565 51.7665
f 18/46/14 14/45/14 19/48/14

vt -6.93045 19.6471
vn -0.5 0 -0.866025
v 13.5222 10.3395 -6.98097
vt -4.39436 51.7665
vt -6.93045 51.7665
f 14/49/15 20/50/15 19/51/15

vt -4.39436 19.6471
f 20/50/15 14/49/15 16/52/15

vt -685.332 19.6471
vn -0.866025 0 0.5
vt -687.565 51.7665
vt -687.565 19.6471
f 15/53/16 20/54/16 16/55/16

v 14.241 10.3395 -5.73597
vt -685.332 51.7665
f 20/54/16 15/53/16 21/56/16

vt 4.39436 19.6471
vn 0.5 0 0.866025
vt 6.93045 51.7665
vt 4.39436 51.7665
f 15/57/17 18/58/17 21/59/17

vt 6.93045 19.6471
f 18/58/17 15/57/17 17/60/17

g Mesh3 Group3 Group1 Model

usemtl Vegetation_Blur3
v -1.76894 18.6194 14.9994
v -1.42133 16.8937 13.9687
v -2.83534 16.8937 14.7851
f 22/1/1 23/2/1 24/3/1

v -0.702526 16.8937 15.2137
f 23/4/2 22/5/2 25/6/2

v -2.11655 16.8937 16.0301
f 22/7/3 26/8/3 25/9/3

f 24/10/4 26/11/4 22/12/4

v -8.71294 5.19867 15.9059
f 27/13/5 26/14/5 24/15/5

v -6.19714 5.19867 20.2634
f 26/14/5 27/13/5 28/16/5

v -0.550181 5.19867 22.6117
f 26/17/6 28/18/6 29/19/6

f 29/20/7 25/21/7 26/22/7

v 4.39889 5.19867 19.7543
f 25/21/7 29/20/7 30/23/7

v 4.85434 5.19867 13.8828
f 25/24/8 30/25/8 31/26/8

v 2.33855 5.19867 9.52536
f 32/27/9 25/28/9 31/29/9

f 25/28/9 32/27/9 23/30/9

v -2.7345 5.19867 7.39894
f 33/31/10 23/32/10 32/33/10

f 33/34/11 24/35/11 23/36/11

v -7.68357 5.19867 10.2563
f 24/35/11 33/34/11 34/37/11

f 34/38/12 27/39/12 24/40/12

g Mesh4 Group3 Group1 Model

v -1.42133 0 13.9687
v -2.11655 0 16.0301
v -2.83534 0 14.7851
f 35/41/13 36/42/13 37/43/13

v -0.702526 0 15.2137
f 36/42/13 35/41/13 38/44/13

usemtl Wood_Lumber_ButtJoined
v -0.702526 10.3395 15.2137
f 35/45/14 39/46/14 38/47/14

v -1.42133 10.3395 13.9687
f 39/46/14 35/45/14 40/48/14

v -2.83534 10.3395 14.7851
f 35/49/15 41/50/15 40/51/15

f 41/50/15 35/49/15 37/52/15

f 36/53/16 41/54/16 37/55/16

v -2.11655 10.3395 16.0301
f 41/54/16 36/53/16 42/56/16

f 36/57/17 39/58/17 42/59/17

f 39/58/17 36/57/17 38/60/17

g Mesh5 Group4 Group1 Model

usemtl Vegetation_Blur3
v -35.8134 18.6194 25.6109
v -35.4658 16.8937 24.5802
v -36.8798 16.8937 25.3966
f 43/1/1 44/2/1 45/3/1

v -34.747 16.8937 25.8252
f 44/4/2 43/5/2 46/6/2

v -36.161 16.8937 26.6416
f 43/7/3 47/8/3 46/9/3

f 45/10/4 47/11/4 43/12/4

v -42.7574 5.19867 26.5175
f 48/13/5 47/14/5 45/15/5

v -40.2416 5.19867 30.875
f 47/14/5 48/13/5 49/16/5

v -34.5947 5.19867 33.2232
f 47/17/6 49/18/6 50/19/6

f 50/20/7 46/21/7 47/22/7

v -29.6456 5.19867 30.3659
f 46/21/7 50/20/7 51/23/7

v -29.1901 5.19867 24.4944
f 46/24/8 51/25/8 52/26/8

v -31.7059 5.19867 20.1369
f 53/27/9 46/28/9 52/29/9

f 46/28/9 53/27/9 44/30/9

v -36.779 5.19867 18.0105
f 54/31/10 44/32/10 53/33/10

f 54/34/11 45/35/11 44/36/11

v -41.7281 5.19867 20.8678
f 45/35/11 54/34/11 55/37/11

f 55/38/12 48/39/12 45/40/12

g Mesh6 Group4 Group1 Model

v -35.4658 0 24.5802
v -36.161 0 26.6416
v -36.8798 0 25.3966
f 56/41/13 57/42/13 58/43/13

v -34.747 0 25.8252
f 57/42/13 56/41/13 59/44/13

usemtl Wood_Lumber_ButtJoined
v -34.747 10.3395 25.8252
f 56/45/14 60/46/14 59/47/14

v -35.4658 10.3395 24.5802
f 60/46/14 56/45/14 61/48/14

v -36.8798 10.3395 25.3966
f 56/49/15 62/50/15 61/51/15

f 62/50/15 56/49/15 58/52/15

f 57/53/16 62/54/16 58/55/16

v -36.161 10.3395 26.6416
f 62/54/16 57/53/16 63/56/16

f 57/57/17 60/58/17 63/59/17

f 60/58/17 57/57/17 59/60/17

g Mesh7 Group5 Group1 Model

usemtl Vegetation_Blur3
v 47.111 18.6194 -1.96784
v 47.4586 16.8937 -2.99853
v 46.0446 16.8937 -2.18214
f 64/1/1 65/2/1 66/3/1

v 48.1774 16.8937 -1.75353
f 65/4/2 64/5/2 67/6/2

v 46.7634 16.8937 -0.937145
f 64/7/3 68/8/3 67/9/3

f 66/10/4 68/11/4 64/12/4

v 40.167 5.19867 -1.06126
f 69/13/5 68/14/5 66/15/5

v 42.6828 5.19867 3.29622
f 68/14/5 69/13/5 70/16/5

v 48.3298 5.19867 5.64446
f 68/17/6 70/18/6 71/19/6

f 71/20/7 67/21/7 68/22/7

v 53.2788 5.19867 2.78712
f 67/21/7 71/20/7 72/23/7

v 53.7343 5.19867 -3.08436
f 67/24/8 72/25/8 73/26/8

v 51.2185 5.19867 -7.44184
f 74/27/9 67/28/9 73/29/9

f 67/28/9 74/27/9 65/30/9

v 46.1455 5.19867 -9.56827
f 75/31/10 65/32/10 74/33/10

f 75/34/11 66/35/11 65/36/11

v 41.1964 5.19867 -6.71092
f 66/35/11 75/34/11 76/37/11

f 76/38/12 69/39/12 66/40/12

g Mesh8 Group5 Group1 Model

v 47.4586 0 -2.99853
v 46.7634 0 -0.937145
v 46.0446 0 -2.18214
f 77/41/13 78/42/13 79/43/13

v 48.1774 0 -1.75353
f 78/42/13 77/41/13 80/44/13

usemtl Wood_Lumber_ButtJoined
v 48.1774 10.3395 -1.75353
f 77/45/14 81/46/14 80/47/14

v 47.4586 10.3395 -2.99853
f 81/46/14 77/45/14 82/48/14

v 46.0446 10.3395 -2.18214
f 77/49/15 83/50/15 82/51/15

f 83/50/15 77/49/15 79/52/15

f 78/53/16 83/54/16 79/55/16

v 46.7634 10.3395 -0.937145
f 83/54/16 78/53/16 84/56/16

f 78/57/17 81/58/17 84/59/17

f 81/58/17 78/57/17 80/60/17

g Mesh9 Group6 Group1 Model

usemtl Vegetation_Blur3
v 4.769 20.5467 -31.3257
v 5.11661 18.821 -32.3563
v 3.70259 18.821 -31.54
f 85/1/1 86/2/1 87/3/1

v 5.83541 18.821 -31.1114
f 86/4/2 85/5/2 88/6/2

v 4.42139 18.821 -30.295
f 85/7/3 89/8/3 88/9/3

f 87/10/4 89/11/4 85/12/4

v -2.175 7.12593 -30.4191
f 90/13/5 89/14/5 87/15/5

v 0.340791 7.12593 -26.0616
f 89/14/5 90/13/5 91/16/5

v 5.98775 7.12593 -23.7134
f 89/17/6 91/18/6 92/19/6

f 92/20/7 88/21/7 89/22/7

v 10.9368 7.12593 -26.5707
f 88/21/7 92/20/7 93/23/7

v 11.3923 7.12593 -32.4422
f 88/24/8 93/25/8 94/26/8

v 8.87648 7.12593 -36.7997
f 95/27/9 88/28/9 94/29/9

f 88/28/9 95/27/9 86/30/9

v 3.80344 7.12593 -38.9261
f 96/31/10 86/32/10 95/33/10

f 96/34/11 87/35/11 86/36/11

v -1.14563 7.12593 -36.0687
f 87/35/11 96/34/11 97/37/11

f 97/38/12 90/39/12 87/40/12

g Mesh10 Group6 Group1 Model

v 5.11661 1.92726 -32.3563
v 4.42139 1.92726 -30.295
v 3.70259 1.92726 -31.54
f 98/41/13 99/42/13 100/43/13

v 5.83541 1.92726 -31.1114
f 99/42/13 98/41/13 101/44/13

usemtl Wood_Lumber_ButtJoined
v 5.83541 12.2667 -31.1114
f 98/45/14 102/46/14 101/47/14

v 5.11661 12.2667 -32.3563
f 102/46/14 98/45/14 103/48/14

v 3.70259 12.2667 -31.54
f 98/49/15 104/50/15 103/51/15

f 104/50/15 98/49/15 100/52/15

f 99/53/16 104/54/16 100/55/16

v 4.42139 12.2667 -30.295
f 104/54/16 99/53/16 105/56/16

f 99/57/17 102/58/17 105/59/17

f 102/58/17 99/57/17 101/60/17

g Mesh11 Group7 Group1 Model

usemtl Vegetation_Blur3
v -14.5889 18.6194 39.5973
v -14.2413 16.8937 38.5666
v -15.6554 16.8937 39.383
f 106/1/1 107/2/1 108/3/1

v -13.5225 16.8937 39.8116
f 107/4/2 106/5/2 109/6/2

v -14.9366 16.8937 40.628
f 106/7/3 110/8/3 109/9/3

f 108/10/4 110/11/4 106/12/4

v -21.5329 5.19867 40.5039
f 111/13/5 110/14/5 108/15/5

v -19.0172 5.19867 44.8613
f 110/14/5 111/13/5 112/16/5

v -13.3702 5.19867 47.2096
f 110/17/6 112/18/6 113/19/6

f 113/20/7 109/21/7 110/22/7

v -8.42112 5.19867 44.3522
f 109/21/7 113/20/7 114/23/7

v -7.96567 5.19867 38.4808
f 109/24/8 114/25/8 115/26/8

v -10.4815 5.19867 34.1233
f 116/27/9 109/28/9 115/29/9

f 109/28/9 116/27/9 107/30/9

v -15.5545 5.19867 31.9969
f 117/31/10 107/32/10 116/33/10

f 117/34/11 108/35/11 107/36/11

v -20.5036 5.19867 34.8542
f 108/35/11 117/34/11 118/37/11

f 118/38/12 111/39/12 108/40/12

g Mesh12 Group7 Group1 Model

v -14.2413 0 38.5666
v -14.9366 0 40.628
v -15.6554 0 39.383
f 119/41/13 120/42/13 121/43/13

v -13.5225 0 39.8116
f 120/42/13 119/41/13 122/44/13

usemtl Wood_Lumber_ButtJoined
v -13.5225 10.3395 39.8116
f 119/45/14 123/46/14 122/47/14

v -14.2413 10.3395 38.5666
f 123/46/14 119/45/14 124/48/14

v -15.6554 10.3395 39.383
f 119/49/15 125/50/15 124/51/15

f 125/50/15 119/49/15 121/52/15

f 120/53/16 125/54/16 121/55/16

v -14.9366 10.3395 40.628
f 125/54/16 120/53/16 126/56/16

f 120/57/17 123/58/17 126/59/17

f 123/58/17 120/57/17 122/60/17

g Mesh13 Group8 Group1 Model

usemtl Vegetation_Blur3
v -23.9017 18.6194 4.38096
v -23.5541 16.8937 3.35027
v -24.9681 16.8937 4.16666
f 127/1/1 128/2/1 129/3/1

v -22.8353 16.8937 4.59527
f 128/4/2 127/5/2 130/6/2

v -24.2493 16.8937 5.41165
f 127/7/3 131/8/3 130/9/3

f 129/10/4 131/11/4 127/12/4

v -30.8457 5.19867 5.28754
f 132/13/5 131/14/5 129/15/5

v -28.3299 5.19867 9.64502
f 131/14/5 132/13/5 133/16/5

v -22.683 5.19867 11.9933
f 131/17/6 133/18/6 134/19/6

f 134/20/7 130/21/7 131/22/7

v -17.7339 5.19867 9.13592
f 130/21/7 134/20/7 135/23/7

v -17.2784 5.19867 3.26444
f 130/24/8 135/25/8 136/26/8

v -19.7942 5.19867 -1.09304
f 137/27/9 130/28/9 136/29/9

f 130/28/9 137/27/9 128/30/9

v -24.8673 5.19867 -3.21947
f 138/31/10 128/32/10 137/33/10

f 138/34/11 129/35/11 128/36/11

v -29.8163 5.19867 -0.362122
f 129/35/11 138/34/11 139/37/11

f 139/38/12 132/39/12 129/40/12

g Mesh14 Group8 Group1 Model

v -23.5541 0 3.35027
v -24.2493 0 5.41165
v -24.9681 0 4.16666
f 140/41/13 141/42/13 142/43/13

v -22.8353 0 4.59527
f 141/42/13 140/41/13 143/44/13

usemtl Wood_Lumber_ButtJoined
v -22.8353 10.3395 4.59527
f 140/45/14 144/46/14 143/47/14

v -23.5541 10.3395 3.35027
f 144/46/14 140/45/14 145/48/14

v -24.9681 10.3395 4.16666
f 140/49/15 146/50/15 145/51/15

f 146/50/15 140/49/15 142/52/15

f 141/53/16 146/54/16 142/55/16

v -24.2493 10.3395 5.41165
f 146/54/16 141/53/16 147/56/16

f 141/57/17 144/58/17 147/59/17

f 144/58/17 141/57/17 143/60/17

g Mesh15 Group9 Group1 Model

usemtl Vegetation_Blur3
v -16.021 18.6194 -28.7914
v -15.6734 16.8937 -29.8221
v -17.0874 16.8937 -29.0057
f 148/1/1 149/2/1 150/3/1

v -14.9546 16.8937 -28.5771
f 149/4/2 148/5/2 151/6/2

v -16.3686 16.8937 -27.7607
f 148/7/3 152/8/3 151/9/3

f 150/10/4 152/11/4 148/12/4

v -22.965 5.19867 -27.8848
f 153/13/5 152/14/5 150/15/5

v -20.4492 5.19867 -23.5273
f 152/14/5 153/13/5 154/16/5

v -14.8023 5.19867 -21.1791
f 152/17/6 154/18/6 155/19/6

f 155/20/7 151/21/7 152/22/7

v -9.85319 5.19867 -24.0364
f 151/21/7 155/20/7 156/23/7

v -9.39773 5.19867 -29.9079
f 151/24/8 156/25/8 157/26/8

v -11.9135 5.19867 -34.2654
f 158/27/9 151/28/9 157/29/9

f 151/28/9 158/27/9 149/30/9

v -16.9866 5.19867 -36.3918
f 159/31/10 149/32/10 158/33/10

f 159/34/11 150/35/11 149/36/11

v -21.9356 5.19867 -33.5345
f 150/35/11 159/34/11 160/37/11

f 160/38/12 153/39/12 150/40/12

g Mesh16 Group9 Group1 Model

v -15.6734 0 -29.8221
v -16.3686 0 -27.7607
v -17.0874 0 -29.0057
f 161/41/13 162/42/13 163/43/13

v -14.9546 0 -28.5771
f 162/42/13 161/41/13 164/44/13

usemtl Wood_Lumber_ButtJoined
v -14.9546 10.3395 -28.5771
f 161/45/14 165/46/14 164/47/14

v -15.6734 10.3395 -29.8221
f 165/46/14 161/45/14 166/48/14

v -17.0874 10.3395 -29.0057
f 161/49/15 167/50/15 166/51/15

f 167/50/15 161/49/15 163/52/15

f 162/53/16 167/54/16 163/55/16

v -16.3686 10.3395 -27.7607
f 167/54/16 162/53/16 168/56/16

f 162/57/17 165/58/17 168/59/17

f 165/58/17 162/57/17 164/60/17

g Mesh17 Group10 Group1 Model

usemtl Vegetation_Blur3
v 31.4282 18.6194 -19.6213
v 31.7758 16.8937 -20.652
v 30.3618 16.8937 -19.8356
f 169/1/1 170/2/1 171/3/1

v 32.4946 16.8937 -19.407
f 170/4/2 169/5/2 172/6/2

v 31.0806 16.8937 -18.5906
f 169/7/3 173/8/3 172/9/3

f 171/10/4 173/11/4 169/12/4

v 24.4842 5.19867 -18.7147
f 174/13/5 173/14/5 171/15/5

v 27 5.19867 -14.3572
f 173/14/5 174/13/5 175/16/5

v 32.647 5.19867 -12.009
f 173/17/6 175/18/6 176/19/6

f 176/20/7 172/21/7 173/22/7

v 37.596 5.19867 -14.8663
f 172/21/7 176/20/7 177/23/7

v 38.0515 5.19867 -20.7378
f 172/24/8 177/25/8 178/26/8

v 35.5357 5.19867 -25.0953
f 179/27/9 172/28/9 178/29/9

f 172/28/9 179/27/9 170/30/9

v 30.4627 5.19867 -27.2217
f 180/31/10 170/32/10 179/33/10

f 180/34/11 171/35/11 170/36/11

v 25.5136 5.19867 -24.3644
f 171/35/11 180/34/11 181/37/11

f 181/38/12 174/39/12 171/40/12

g Mesh18 Group10 Group1 Model

v 31.7758 0 -20.652
v 31.0806 0 -18.5906
v 30.3618 0 -19.8356
f 182/41/13 183/42/13 184/43/13

v 32.4946 0 -19.407
f 183/42/13 182/41/13 185/44/13

usemtl Wood_Lumber_ButtJoined
v 32.4946 10.3395 -19.407
f 182/45/14 186/46/14 185/47/14

v 31.7758 10.3395 -20.652
f 186/46/14 182/45/14 187/48/14

v 30.3618 10.3395 -19.8356
f 182/49/15 188/50/15 187/51/15

f 188/50/15 182/49/15 184/52/15

f 183/53/16 188/54/16 184/55/16

v 31.0806 10.3395 -18.5906
f 188/54/16 183/53/16 189/56/16

f 183/57/17 186/58/17 189/59/17

f 186/58/17 183/57/17 185/60/17

g Mesh19 Group11 Group1 Model

usemtl Vegetation_Blur3
v 41.9401 18.6194 31.7426
v 42.2877 16.8937 30.7119
v 40.8737 16.8937 31.5283
f 190/1/1 191/2/1 192/3/1

v 43.0065 16.8937 31.9569
f 191/4/2 190/5/2 193/6/2

v 41.5925 16.8937 32.7733
f 190/7/3 194/8/3 193/9/3

f 192/10/4 194/11/4 190/12/4

v 34.9961 5.19867 32.6492
f 195/13/5 194/14/5 192/15/5

v 37.5119 5.19867 37.0067
f 194/14/5 195/13/5 196/16/5

v 43.1588 5.19867 39.3549
f 194/17/6 196/18/6 197/19/6

f 197/20/7 193/21/7 194/22/7

v 48.1079 5.19867 36.4976
f 193/21/7 197/20/7 198/23/7

v 48.5634 5.19867 30.6261
f 193/24/8 198/25/8 199/26/8

v 46.0476 5.19867 26.2686
f 200/27/9 193/28/9 199/29/9

f 193/28/9 200/27/9 191/30/9

v 40.9745 5.19867 24.1422
f 201/31/10 191/32/10 200/33/10

f 201/34/11 192/35/11 191/36/11

v 36.0255 5.19867 26.9995
f 192/35/11 201/34/11 202/37/11

f 202/38/12 195/39/12 192/40/12

g Mesh20 Group11 Group1 Model

v 42.2877 0 30.7119
v 41.5925 0 32.7733
v 40.8737 0 31.5283
f 203/41/13 204/42/13 205/43/13

v 43.0065 0 31.9569
f 204/42/13 203/41/13 206/44/13

usemtl Wood_Lumber_ButtJoined
v 43.0065 10.3395 31.9569
f 203/45/14 207/46/14 206/47/14

v 42.2877 10.3395 30.7119
f 207/46/14 203/45/14 208/48/14

v 40.8737 10.3395 31.5283
f 203/49/15 209/50/15 208/51/15

f 209/50/15 203/49/15 205/52/15

f 204/53/16 209/54/16 205/55/16

v 41.5925 10.3395 32.7733
f 209/54/16 204/53/16 210/56/16

f 204/57/17 207/58/17 210/59/17

f 207/58/17 204/57/17 206/60/17

g Mesh21 Group12 Group1 Model

usemtl Vegetation_Blur3
v -37.5995 18.6194 -9.97137
v -37.2519 16.8937 -11.0021
v -38.6659 16.8937 -10.1857
f 211/1/1 212/2/1 213/3/1

v -36.5331 16.8937 -9.75706
f 212/4/2 211/5/2 214/6/2

v -37.9471 16.8937 -8.94068
f 211/7/3 215/8/3 214/9/3

f 213/10/4 215/11/4 211/12/4

v -44.5435 5.19867 -9.06479
f 216/13/5 215/14/5 213/15/5

v -42.0277 5.19867 -4.70731
f 215/14/5 216/13/5 217/16/5

v -36.3808 5.19867 -2.35907
f 215/17/6 217/18/6 218/19/6

f 218/20/7 214/21/7 215/22/7

v -31.4317 5.19867 -5.21641
f 214/21/7 218/20/7 219/23/7

v -30.9763 5.19867 -11.0879
f 214/24/8 219/25/8 220/26/8

v -33.492 5.19867 -15.4454
f 221/27/9 214/28/9 220/29/9

f 214/28/9 221/27/9 212/30/9

v -38.5651 5.19867 -17.5718
f 222/31/10 212/32/10 221/33/10

f 222/34/11 213/35/11 212/36/11

v -43.5142 5.19867 -14.7145
f 213/35/11 222/34/11 223/37/11

f 223/38/12 216/39/12 213/40/12

g Mesh22 Group12 Group1 Model

v -37.2519 0 -11.0021
v -37.9471 0 -8.94068
v -38.6659 0 -10.1857
f 224/41/13 225/42/13 226/43/13

v -36.5331 0 -9.75706
f 225/42/13 224/41/13 227/44/13

usemtl Wood_Lumber_ButtJoined
v -36.5331 10.3395 -9.75706
f 224/45/14 228/46/14 227/47/14

v -37.2519 10.3395 -11.0021
f 228/46/14 224/45/14 229/48/14

v -38.6659 10.3395 -10.1857
f 224/49/15 230/50/15 229/51/15

f 230/50/15 224/49/15 226/52/15

f 225/53/16 230/54/16 226/55/16

v -37.9471 10.3395 -8.94068
f 230/54/16 225/53/16 231/56/16

f 225/57/17 228/58/17 231/59/17

f 228/58/17 225/57/17 227/60/17

g Mesh23 Group13 Group1 Model

usemtl Vegetation_Blur3
v 22.8602 18.6194 15.8797
v 23.2078 16.8937 14.849
v 21.7937 16.8937 15.6654
f 232/1/1 233/2/1 234/3/1

v 23.9266 16.8937 16.094
f 233/4/2 232/5/2 235/6/2

v 22.5125 16.8937 16.9104
f 232/7/3 236/8/3 235/9/3

f 234/10/4 236/11/4 232/12/4

v 15.9161 5.19867 16.7863
f 237/13/5 236/14/5 234/15/5

v 18.4319 5.19867 21.1437
f 236/14/5 237/13/5 238/16/5

v 24.0789 5.19867 23.492
f 236/17/6 238/18/6 239/19/6

f 239/20/7 235/21/7 236/22/7

v 29.028 5.19867 20.6346
f 235/21/7 239/20/7 240/23/7

v 29.4834 5.19867 14.7632
f 235/24/8 240/25/8 241/26/8

v 26.9676 5.19867 10.4057
f 242/27/9 235/28/9 241/29/9

f 235/28/9 242/27/9 233/30/9

v 21.8946 5.19867 8.27925
f 243/31/10 233/32/10 242/33/10

f 243/34/11 234/35/11 233/36/11

v 16.9455 5.19867 11.1366
f 234/35/11 243/34/11 244/37/11

f 244/38/12 237/39/12 234/40/12

g Mesh24 Group13 Group1 Model

v 23.2078 0 14.849
v 22.5125 0 16.9104
v 21.7937 0 15.6654
f 245/41/13 246/42/13 247/43/13

v 23.9266 0 16.094
f 246/42/13 245/41/13 248/44/13

usemtl Wood_Lumber_ButtJoined
v 23.9266 10.3395 16.094
f 245/45/14 249/46/14 248/47/14

v 23.2078 10.3395 14.849
f 249/46/14 245/45/14 250/48/14

v 21.7937 10.3395 15.6654
f 245/49/15 251/50/15 250/51/15

f 251/50/15 245/49/15 247/52/15

f 246/53/16 251/54/16 247/55/16

v 22.5125 10.3395 16.9104
f 251/54/16 246/53/16 252/56/16

f 246/57/17 249/58/17 252/59/17

f 249/58/17 246/57/17 248/60/17

g Mesh25 Group14 Group1 Model

usemtl Vegetation_Blur3
v -6.38269 18.6194 -12.1927
v -6.03508 16.8937 -13.2234
v -7.4491 16.8937 -12.407
f 253/1/1 254/2/1 255/3/1

v -5.31629 16.8937 -11.9784
f 254/4/2 253/5/2 256/6/2

v -6.73031 16.8937 -11.162
f 253/7/3 257/8/3 256/9/3

f 255/10/4 257/11/4 253/12/4

v -13.3267 5.19867 -11.2861
f 258/13/5 257/14/5 255/15/5

v -10.8109 5.19867 -6.92865
f 257/14/5 258/13/5 259/16/5

v -5.16394 5.19867 -4.58041
f 257/17/6 259/18/6 260/19/6

f 260/20/7 256/21/7 257/22/7

v -0.214872 5.19867 -7.43775
f 256/21/7 260/20/7 261/23/7

v 0.240583 5.19867 -13.3092
f 256/24/8 261/25/8 262/26/8

v -2.27521 5.19867 -17.6667
f 263/27/9 256/28/9 262/29/9

f 256/28/9 263/27/9 254/30/9

v -7.34826 5.19867 -19.7931
f 264/31/10 254/32/10 263/33/10

f 264/34/11 255/35/11 254/36/11

v -12.2973 5.19867 -16.9358
f 255/35/11 264/34/11 265/37/11

f 265/38/12 258/39/12 255/40/12

g Mesh26 Group14 Group1 Model

v -6.03508 0 -13.2234
v -6.73031 0 -11.162
v -7.4491 0 -12.407
f 266/41/13 267/42/13 268/43/13

v -5.31629 0 -11.9784
f 267/42/13 266/41/13 269/44/13

usemtl Wood_Lumber_ButtJoined
v -5.31629 10.3395 -11.9784
f 266/45/14 270/46/14 269/47/14

v -6.03508 10.3395 -13.2234
f 270/46/14 266/45/14 271/48/14

v -7.4491 10.3395 -12.407
f 266/49/15 272/50/15 271/51/15

f 272/50/15 266/49/15 268/52/15

f 267/53/16 272/54/16 268/55/16

v -6.73031 10.3395 -11.162
f 272/54/16 267/53/16 273/56/16

f 267/57/17 270/58/17 273/59/17

f 270/58/17 267/57/17 269/60/17

