# Alias OBJ Model File
# Exported from SketchUp, (c) 2000-2006 Google, Inc.
# File units = meters

mtllib obs06.mtl

g Mesh1 Group1 Model

usemtl Color_000
v 20.0905 -2.31012e-014 -23.6574
vt -1554.37 1822.83
vn 0 -1 -0
v -19.3905 -2.31012e-014 22.6426
vt 0 0
v -19.3905 -2.31012e-014 -23.6574
vt 0 1822.83
f 1/1/1 2/2/1 3/3/1

v 20.0905 -2.31012e-014 22.6426
vt -1554.37 0
f 2/2/1 1/1/1 4/4/1

vt 1822.83 0
vn 1 0 -0
v 20.0905 25.5041 22.6426
vt 0 1004.1
f 1/5/2 5/6/2 4/2/2

v 20.0905 25.5041 -23.6574
vt 1822.83 1004.1
f 5/6/2 1/5/2 6/7/2

vn 0 0 -1
v -14.4554 33.2982 -23.6574
vt -194.296 1310.95
vt -1554.37 1004.1
f 1/4/3 7/8/3 6/9/3

f 3/2/3 7/8/3 1/4/3

v -19.3905 82.6945 -23.6574
vt 0 3255.69
f 7/8/3 3/2/3 8/10/3

vt -1822.83 0
vn -1 0 -0
v -19.3905 33.2982 -17.8699
vt -1594.98 1310.95
vt -1822.83 3255.69
f 3/11/4 9/12/4 8/13/4

v -19.3905 33.2982 -12.0824
vt -1367.13 1310.95
f 3/11/4 10/14/4 9/12/4

v -19.3905 33.2982 -6.29492
vt -1139.27 1310.95
f 3/11/4 11/15/4 10/14/4

v -19.3905 33.2982 5.28008
vt -683.563 1310.95
f 3/11/4 12/16/4 11/15/4

v -19.3905 33.2982 11.0676
vt -455.709 1310.95
f 3/11/4 13/17/4 12/16/4

v -19.3905 33.2982 16.8551
vt -227.854 1310.95
f 3/11/4 14/18/4 13/17/4

f 2/2/4 14/18/4 3/11/4

v -19.3905 74.9209 16.8551
vt -227.854 2949.64
f 14/18/4 2/2/4 15/19/4

v -19.3905 82.6945 22.6426
f 16/10/4 15/19/4 2/2/4

f 15/19/4 16/10/4 8/13/4

v 20.0905 82.6945 22.6426
vt 1554.37 8.48189e-029
vn -1.51278e-031 1 2.60525e-032
vt 4.92515e-028 1822.83
vt 4.92515e-028 8.48189e-029
f 17/20/5 8/21/5 16/22/5

v 20.0905 82.6945 -23.6574
vt 1554.37 1822.83
f 8/21/5 17/20/5 18/23/5

v 20.0905 74.9209 16.8551
vt 227.854 2949.64
vt 1822.83 3255.69
f 17/10/2 19/24/2 18/25/2

v 20.0905 33.2982 16.8551
vt 227.854 1310.95
f 19/24/2 17/10/2 20/26/2

v 20.0905 28.5537 22.6426
vt 0 1124.16
f 21/27/2 20/26/2 17/10/2

v 20.0905 28.5537 -23.6574
vt 1822.83 1124.16
f 20/26/2 21/27/2 22/28/2

v 82.3655 28.5537 22.6426
vt 4006.14 0
vn 0 1 -0
vt 1554.37 0
f 23/29/6 22/23/6 21/30/6

v 82.3655 28.5537 -23.6574
vt 4006.14 1822.83
f 22/23/6 23/29/6 24/31/6

v 82.3655 25.5041 -23.6574
f 23/27/2 25/7/2 24/28/2

v 82.3655 25.5041 22.6426
f 25/7/2 23/27/2 26/6/2

vt 4006.14 1124.16
vn 0 0 1
vt 1554.37 1004.1
vt 4006.14 1004.1
f 23/32/7 5/33/7 26/34/7

vt 1554.37 1124.16
f 21/35/7 5/33/7 23/32/7

v -14.4554 33.2982 22.6426
vt 194.296 1310.95
f 27/36/7 5/33/7 21/35/7

f 2/2/7 5/33/7 27/36/7

f 5/33/7 2/2/7 4/30/7

f 2/2/7 27/36/7 16/10/7

v -14.4554 74.9209 22.6426
vt 194.296 2949.64
f 16/10/7 27/36/7 28/37/7

usemtl Color_I04
v -9.52026 74.9209 22.6426
vt 388.593 2949.64
f 27/36/7 29/38/7 28/37/7

v -9.52026 33.2982 22.6426
vt 388.593 1310.95
f 29/38/7 27/36/7 30/39/7

usemtl Color_000
v -4.58513 33.2982 22.6426
vt 582.889 1310.95
f 27/36/7 31/40/7 30/39/7

v 5.28512 33.2982 22.6426
vt 971.481 1310.95
f 27/36/7 32/41/7 31/40/7

v 10.2202 33.2982 22.6426
vt 1165.78 1310.95
f 27/36/7 33/42/7 32/41/7

v 15.1554 33.2982 22.6426
vt 1360.07 1310.95
f 27/36/7 34/43/7 33/42/7

f 27/36/7 21/35/7 34/43/7

vt 1554.37 3255.69
f 17/44/7 34/43/7 21/35/7

v 15.1554 74.9209 22.6426
vt 1360.07 2949.64
f 34/43/7 17/44/7 35/45/7

v -4.58513 74.9209 22.6426
vt 582.889 2949.64
f 35/45/7 17/44/7 36/46/7

f 36/46/7 17/44/7 29/38/7

f 16/10/7 29/38/7 17/44/7

f 16/10/7 28/37/7 29/38/7

f 30/39/7 36/46/7 29/38/7

f 36/46/7 30/39/7 31/40/7

usemtl Color_I04
v 5.28512 74.9209 22.6426
vt 971.481 2949.64
f 31/40/7 37/47/7 36/46/7

f 37/47/7 31/40/7 32/41/7

usemtl Color_000
v 10.2202 74.9209 22.6426
vt 1165.78 2949.64
f 32/41/7 38/48/7 37/47/7

f 38/48/7 32/41/7 33/42/7

usemtl Color_I04
f 33/42/7 35/45/7 38/48/7

f 35/45/7 33/42/7 34/43/7

usemtl Color_000
f 37/47/7 38/48/7 35/45/7

f 37/47/7 35/45/7 36/46/7

v 77.202 25.5041 -17.5549
vt -3802.86 1582.58
vt -4006.14 0
f 5/4/1 39/49/1 26/50/1

v 77.202 25.5041 -21.4469
vt -3802.86 1735.81
f 39/49/1 5/4/1 40/51/1

f 6/1/1 40/51/1 5/4/1

vt -4006.14 1822.83
f 40/51/1 6/1/1 25/52/1

vt -1554.37 1124.16
vt -4006.14 1004.1
f 6/9/3 22/53/3 25/54/3

f 6/9/3 7/8/3 22/53/3

v 15.1554 33.2982 -23.6574
vt -1360.07 1310.95
f 41/55/3 22/53/3 7/8/3

vt -1554.37 3255.69
f 22/53/3 41/55/3 18/56/3

v 15.1554 74.9209 -23.6574
vt -1360.07 2949.64
f 18/56/3 41/55/3 42/57/3

usemtl Color_I04
v 10.2202 74.9209 -23.6574
vt -1165.78 2949.64
f 41/55/3 43/58/3 42/57/3

v 10.2202 33.2982 -23.6574
vt -1165.78 1310.95
f 43/58/3 41/55/3 44/59/3

usemtl Color_000
v 5.28512 33.2982 -23.6574
vt -971.481 1310.95
f 41/55/3 45/60/3 44/59/3

v -4.58513 33.2982 -23.6574
vt -582.889 1310.95
f 41/55/3 46/61/3 45/60/3

v -9.52026 33.2982 -23.6574
vt -388.593 1310.95
f 41/55/3 47/62/3 46/61/3

f 41/55/3 7/8/3 47/62/3

usemtl Color_I04
v -14.4554 74.9209 -23.6574
vt -194.296 2949.64
f 48/63/3 47/62/3 7/8/3

v -9.52026 74.9209 -23.6574
vt -388.593 2949.64
f 47/62/3 48/63/3 49/64/3

usemtl Color_000
f 48/63/3 8/10/3 49/64/3

f 7/8/3 8/10/3 48/63/3

v 5.28512 74.9209 -23.6574
vt -971.481 2949.64
f 49/64/3 8/10/3 50/65/3

f 50/65/3 8/10/3 43/58/3

f 18/56/3 43/58/3 8/10/3

f 18/56/3 42/57/3 43/58/3

f 44/59/3 50/65/3 43/58/3

f 50/65/3 44/59/3 45/60/3

usemtl Color_I04
vn 5.70611e-032 -1.18058e-032 -1
v -4.58513 74.9209 -23.6574
vt -582.889 2949.64
f 45/60/8 51/66/8 50/65/8

f 51/66/8 45/60/8 46/61/8

usemtl Color_000
f 46/61/3 49/64/3 51/66/3

f 49/64/3 46/61/3 47/62/3

f 51/66/3 49/64/3 50/65/3

v 20.0905 74.9209 -17.8699
vt 1594.98 2949.64
f 18/25/2 52/67/2 22/28/2

v 20.0905 74.9209 -12.0824
vt 1367.13 2949.64
f 18/25/2 53/68/2 52/67/2

v 20.0905 74.9209 -6.29492
vt 1139.27 2949.64
f 18/25/2 54/69/2 53/68/2

v 20.0905 74.9209 5.28008
vt 683.563 2949.64
f 18/25/2 55/70/2 54/69/2

v 20.0905 74.9209 11.0676
vt 455.709 2949.64
f 18/25/2 56/71/2 55/70/2

f 18/25/2 19/24/2 56/71/2

usemtl Color_I04
v 20.0905 33.2982 11.0676
vt 455.709 1310.95
f 19/24/2 57/72/2 56/71/2

f 57/72/2 19/24/2 20/26/2

usemtl Color_000
f 20/26/2 22/28/2 57/72/2

v 20.0905 33.2982 5.28008
vt 683.563 1310.95
f 57/72/2 22/28/2 58/73/2

v 20.0905 33.2982 -6.29492
vt 1139.27 1310.95
f 58/73/2 22/28/2 59/74/2

v 20.0905 33.2982 -12.0824
vt 1367.13 1310.95
f 59/74/2 22/28/2 60/75/2

v 20.0905 33.2982 -17.8699
vt 1594.98 1310.95
f 60/75/2 22/28/2 61/76/2

f 61/76/2 22/28/2 52/67/2

usemtl Color_I04
f 53/68/2 61/76/2 52/67/2

f 61/76/2 53/68/2 60/75/2

usemtl Color_000
f 53/68/2 54/69/2 60/75/2

f 59/74/2 60/75/2 54/69/2

usemtl Color_I04
f 55/70/2 59/74/2 54/69/2

f 59/74/2 55/70/2 58/73/2

usemtl Color_000
f 55/70/2 56/71/2 58/73/2

f 57/72/2 58/73/2 56/71/2

vt -4006.14 1124.16
f 24/77/3 25/54/3 22/53/3

v 81.094 25.5041 -21.4469
vt -3956.08 1735.81
f 40/51/1 25/52/1 62/78/1

v 81.094 25.5041 -17.5549
vt -3956.08 1582.58
f 62/78/1 25/52/1 63/79/1

f 26/50/1 63/79/1 25/52/1

f 26/50/1 39/49/1 63/79/1

v 77.202 -2.31012e-014 -17.5549
vt 3802.86 0
vt 3956.08 1004.1
vt 3802.86 1004.1
f 64/80/7 63/81/7 39/82/7

v 81.094 -2.31012e-014 -17.5549
vt 3956.08 0
f 63/81/7 64/80/7 65/83/7

v 81.094 -2.31012e-014 -21.4469
f 64/49/1 66/78/1 65/79/1

v 77.202 -2.31012e-014 -21.4469
f 66/78/1 64/49/1 67/51/1

vt -1582.58 0
vt -1735.81 1004.1
vt -1735.81 0
f 64/84/4 40/85/4 67/86/4

vt -1582.58 1004.1
f 40/85/4 64/84/4 39/87/4

vt -3802.86 1004.1
vt -3956.08 0
vt -3802.86 0
f 40/88/3 66/89/3 67/90/3

vt -3956.08 1004.1
f 66/89/3 40/88/3 62/91/3

vt 1582.58 1004.1
vt 1735.81 0
vt 1735.81 1004.1
f 63/92/2 66/93/2 62/94/2

vt 1582.58 0
f 66/93/2 63/92/2 65/95/2

v -19.3905 74.9209 11.0676
vt -455.709 2949.64
f 15/19/4 8/13/4 68/96/4

v -19.3905 74.9209 5.28008
vt -683.563 2949.64
f 68/96/4 8/13/4 69/97/4

v -19.3905 74.9209 -6.29492
vt -1139.27 2949.64
f 69/97/4 8/13/4 70/98/4

v -19.3905 74.9209 -12.0824
vt -1367.13 2949.64
f 70/98/4 8/13/4 71/99/4

v -19.3905 74.9209 -17.8699
vt -1594.98 2949.64
f 71/99/4 8/13/4 72/100/4

f 72/100/4 8/13/4 9/12/4

usemtl Color_I04
f 10/14/4 72/100/4 9/12/4

f 72/100/4 10/14/4 71/99/4

usemtl Color_000
f 10/14/4 11/15/4 71/99/4

f 70/98/4 71/99/4 11/15/4

usemtl Color_I04
f 12/16/4 70/98/4 11/15/4

f 70/98/4 12/16/4 69/97/4

usemtl Color_000
f 12/16/4 68/96/4 69/97/4

f 12/16/4 13/17/4 68/96/4

usemtl Color_I04
f 14/18/4 68/96/4 13/17/4

f 68/96/4 14/18/4 15/19/4

g Mesh2 Group2 Model

usemtl Color_000
v -19.8591 0.848 22.6426
vt -1502.87 33.3858
v 20.0905 -2.31012e-014 22.6426
vt -3075.69 0
v -19.8591 -2.31012e-014 22.6426
vt -1502.87 0
f 73/101/3 74/102/3 75/103/3

v 20.0905 0.848 22.6426
vt -3075.69 33.3858
f 74/102/3 73/101/3 76/104/3

vt 1502.87 2063.86
v 30.1904 0.848 32.7425
vt 3473.33 1666.22
vt 3075.69 2063.86
f 73/105/6 77/106/6 76/107/6

v -29.959 0.848 32.7425
vt 1105.24 1666.22
f 73/105/6 78/108/6 77/106/6

v -29.959 0.848 -13.5575
vt 1105.24 3489.06
f 78/108/6 73/105/6 79/109/6

v -19.8591 0.848 -23.6574
vt 1502.87 3886.69
f 80/110/6 79/109/6 73/105/6

v -47.9321 0.848 -13.5575
vt 397.636 3489.06
f 80/110/6 81/111/6 79/109/6

v -58.0321 0.848 -23.6574
vt 0 3886.69
f 82/112/6 81/111/6 80/110/6

v -47.9321 0.848 64.9646
vt 397.636 397.636
f 81/111/6 82/112/6 83/113/6

v -58.0321 0.848 75.0646
f 84/2/6 83/113/6 82/112/6

v 90.8735 0.848 75.0646
vt 5862.42 0
f 83/113/6 84/2/6 85/114/6

v -58.0321 -2.31012e-014 75.0646
vt 5862.42 33.3858
vt 0 33.3858
f 86/2/7 85/115/7 84/116/7

v 90.8735 -2.31012e-014 75.0646
f 85/115/7 86/2/7 87/114/7

v -47.9321 -2.31012e-014 64.9646
vt -397.636 397.636
vt -5862.42 0
f 86/2/1 88/117/1 87/118/1

v -47.9321 -2.31012e-014 -13.5575
vt -397.636 3489.06
f 88/117/1 86/2/1 89/119/1

v -58.0321 -2.31012e-014 -23.6574
f 90/112/1 89/119/1 86/2/1

v -19.8591 -2.31012e-014 -23.6574
vt -1502.87 3886.69
f 89/119/1 90/112/1 91/120/1

f 82/116/3 91/103/3 90/2/3

f 91/103/3 82/116/3 80/101/3

vt 2063.86 33.3858
vt 3886.69 0
vt 3886.69 33.3858
f 73/121/2 91/122/2 80/123/2

vt 2063.86 0
f 91/122/2 73/121/2 75/124/2

v -29.959 -2.31012e-014 32.7425
vt -1105.24 1666.22
vt -1502.87 2063.86
f 92/125/1 91/120/1 75/126/1

v -29.959 -2.31012e-014 -13.5575
vt -1105.24 3489.06
f 93/127/1 91/120/1 92/125/1

f 89/119/1 91/120/1 93/127/1

usemtl Color_009
f 93/109/6 89/111/6 92/108/6

usemtl Color_000
vt 1105.24 33.3858
vn -1.60665e-016 0 1
vt 397.636 0
vt 1105.24 0
f 79/128/9 89/129/9 93/130/9

vt 397.636 33.3858
f 89/129/9 79/128/9 81/131/9

vt 397.636 33.3858
vt 3489.06 0
vt 3489.06 33.3858
f 83/132/2 89/133/2 81/134/2

vt 397.636 0
f 89/133/2 83/132/2 88/135/2

vt -397.636 33.3858
v 80.7735 -2.31012e-014 64.9646
vt -5464.79 0
vt -397.636 0
f 83/136/3 94/137/3 88/138/3

v 80.7735 0.848 64.9646
vt -5464.79 33.3858
f 94/137/3 83/136/3 95/139/3

vt 5464.79 397.636
f 83/113/6 85/114/6 95/140/6

v 80.7735 0.848 -13.5575
vt 5464.79 3489.06
f 95/140/6 85/114/6 96/141/6

v 90.8735 0.848 -23.6574
vt 5862.42 3886.69
f 97/142/6 96/141/6 85/114/6

v 30.1904 0.848 -13.5575
vt 3473.33 3489.06
f 97/142/6 98/143/6 96/141/6

v 20.0905 0.848 -23.6574
vt 3075.69 3886.69
f 99/144/6 98/143/6 97/142/6

f 99/144/6 77/106/6 98/143/6

f 76/107/6 77/106/6 99/144/6

vt -3886.69 33.3858
vt -2063.86 0
vt -2063.86 33.3858
f 99/145/4 74/146/4 76/147/4

v 20.0905 -2.31012e-014 -23.6574
vt -3886.69 0
f 74/146/4 99/145/4 100/148/4

v 90.8735 -2.31012e-014 -23.6574
f 99/104/3 101/118/3 100/102/3

vt -5862.42 33.3858
f 101/118/3 99/104/3 97/149/3

f 85/116/2 101/122/2 97/123/2

f 101/122/2 85/116/2 87/2/2

vt -5464.79 397.636
vt -5862.42 3886.69
f 87/118/1 94/150/1 101/151/1

f 87/118/1 88/117/1 94/150/1

usemtl Color_009
v 39.7709 -4.62023e-014 53.1945
vt 3850.51 861.027
f 102/152/6 88/113/6 94/140/6

f 92/108/6 88/113/6 102/152/6

f 88/113/6 92/108/6 89/111/6

v 30.1904 -2.31012e-014 32.7425
f 92/108/6 102/152/6 103/106/6

v 30.1904 -2.31012e-014 -13.5575
f 103/106/6 102/152/6 104/143/6

v 39.7709 -4.62023e-014 49.4125
vt 3850.51 1009.92
f 105/153/6 104/143/6 102/152/6

v 51.2232 0 -3.73172
vt 4301.39 3102.22
f 106/154/6 104/143/6 105/153/6

v 80.7735 -2.31012e-014 -13.5575
f 104/143/6 106/154/6 107/141/6

v 54.4052 0 -3.73172
vt 4426.66 3102.22
f 107/141/6 106/154/6 108/155/6

usemtl Color_000
v 54.4052 0 6.93528
vt 4426.66 2682.26
f 106/154/6 109/156/6 108/155/6

v 51.2232 0 6.93528
vt 4301.39 2682.26
f 109/156/6 106/154/6 110/157/6

usemtl Color_009
v 51.2103 0 18.6612
vt 4300.88 2220.61
f 106/154/6 111/158/6 110/157/6

f 106/154/6 105/153/6 111/158/6

v 51.2103 0 31.1412
vt 4300.88 1729.27
f 111/158/6 105/153/6 112/159/6

v 53.3729 -4.62023e-014 49.4125
vt 4386.02 1009.92
f 113/160/6 112/159/6 105/153/6

v 54.2473 0 31.1412
vt 4420.45 1729.27
f 112/159/6 113/160/6 114/161/6

f 113/160/6 94/140/6 114/161/6

v 53.3729 -4.62023e-014 53.1945
vt 4386.02 861.027
f 115/162/6 94/140/6 113/160/6

f 102/152/6 94/140/6 115/162/6

usemtl Color_000
f 115/162/6 105/153/6 102/152/6

f 105/153/6 115/162/6 113/160/6

usemtl Color_009
v 54.2473 0 18.6612
vt 4420.45 2220.61
f 114/161/6 94/140/6 116/163/6

f 116/163/6 94/140/6 109/156/6

f 109/156/6 94/140/6 108/155/6

f 107/141/6 108/155/6 94/140/6

usemtl Color_000
vt -3489.06 33.3858
vt -3489.06 0
f 94/138/4 96/164/4 107/165/4

f 96/164/4 94/138/4 95/136/4

vt 5464.79 33.3858
vn -5.70872e-017 0 1
vt 3473.33 0
vt 5464.79 0
f 96/166/10 104/167/10 107/168/10

vt 3473.33 33.3858
f 104/167/10 96/166/10 98/169/10

vt 1666.22 33.3858
f 77/170/2 104/133/2 98/134/2

vt 1666.22 0
f 104/133/2 77/170/2 103/171/2

f 77/169/7 92/130/7 103/167/7

f 92/130/7 77/169/7 78/128/7

vt -1666.22 0
vt -1666.22 33.3858
f 79/164/4 92/172/4 78/173/4

f 92/172/4 79/164/4 93/165/4

vt -3473.33 1666.22
f 92/125/1 75/126/1 103/174/1

vt -3075.69 2063.86
f 103/174/1 75/126/1 74/175/1

vt -3473.33 3489.06
f 103/174/1 74/175/1 104/176/1

vt -3075.69 3886.69
f 100/177/1 104/176/1 74/175/1

f 104/176/1 100/177/1 101/151/1

vt -5464.79 3489.06
f 104/176/1 101/151/1 107/178/1

f 107/178/1 101/151/1 94/150/1

usemtl Color_009
f 110/157/6 116/163/6 109/156/6

f 116/163/6 110/157/6 111/158/6

usemtl Color_000
f 111/158/6 114/161/6 116/163/6

f 114/161/6 111/158/6 112/159/6

f 86/2/4 82/145/4 90/148/4

f 82/145/4 86/2/4 84/116/4

